<svg width="32" height="32" xmlns="http://www.w3.org/2000/svg"><path d="M31.385 4H19.938a.614.614 0 00-.43 1.046L22.51 8.05l-5.28 5.268v-.012l-9.034 9.033a.627.627 0 00-.185.431c0 .16.062.32.185.431l2.388 2.388H1.23v-9.354l2.387 2.388c.234.233.64.233.874 0L15.815 7.298l-.873-.873-10.88 10.88-3.016-2.979a.584.584 0 00-.664-.135.601.601 0 00-.382.566v11.446c0 .345.27.615.615.615h11.447a.614.614 0 00.43-1.046L9.49 22.77l5.28-5.255 9.034-9.034c.11-.11.185-.27.185-.43 0-.16-.062-.32-.185-.432l-2.388-2.387h9.354v9.354l-2.387-2.388a.632.632 0 00-.874 0L16.185 23.52l.873.874 10.88-10.88 3.004 3.003a.609.609 0 00.664.135.64.64 0 00.394-.59V4.615A.61.61 0 0031.385 4z" fill="#1652F0" fill-rule="nonzero"/></svg>