<svg width="32" height="32" fill="none" xmlns="http://www.w3.org/2000/svg"><path d="M28 9H9v1h19V9z" fill="#1652F0"/><path d="M27.5 19H25v-1h2.5c.28 0 .5-.22.5-.5v-11c0-.28-.22-.5-.5-.5h-18c-.28 0-.5.22-.5.5V13H8V6.5C8 5.67 8.67 5 9.5 5h18c.83 0 1.5.67 1.5 1.5v11c0 .83-.67 1.5-1.5 1.5z" fill="#1652F0"/><path d="M22.5 27h-18c-.83 0-1.5-.67-1.5-1.5v-10c0-.83.67-1.5 1.5-1.5h18c.83 0 1.5.67 1.5 1.5v10c0 .83-.67 1.5-1.5 1.5zm-18-12c-.28 0-.5.22-.5.5v10c0 .28.22.5.5.5h18c.28 0 .5-.22.5-.5v-10c0-.28-.22-.5-.5-.5h-18z" fill="#1652F0"/><path d="M17 20H6v1h11v-1zM14 23.25H6v1h8v-1z" fill="#1652F0"/></svg>