<svg width="32" height="32" fill="none" xmlns="http://www.w3.org/2000/svg"><path d="M16 0C7.176 0 0 7.176 0 16s7.176 16 16 16 16-7.176 16-16S24.824 0 16 0zm0 30.06C8.242 30.06 1.94 23.759 1.94 16 1.94 8.242 8.241 1.94 16 1.94c7.758 0 14.06 6.302 14.06 14.06 0 7.758-6.302 14.06-14.06 14.06z" fill="#1652F0"/><path d="M20.567 19.54h-1.086c-.204 0-.407.126-.465.33-.184.717-.689 1.056-1.532 1.056-.437 0-.941-.184-1.523-.397-.349-.126-.717-.262-1.105-.369l-.126-.039.048-.126c.146-.407.213-.746.213-1.125 0-.591-.058-1.173-.174-1.823l-.02-.116h3.075c.164 0 .29-.126.29-.29v-.874a.286.286 0 00-.29-.29h-3.356l-.029-.127c-.136-.717-.232-1.357-.232-2.075 0-1.367.872-2.288 2.181-2.288 1.116 0 1.746.485 2.056 1.59a.495.495 0 00.465.378h1.251a.393.393 0 00.388-.446c-.358-2.056-1.842-3.18-4.218-3.18-2.57 0-4.364 1.59-4.364 3.859 0 .698.088 1.367.291 2.172l.04.126h-1.097a.286.286 0 00-.29.291v.873c0 .165.126.29.29.29h1.513l.03.117c.164.572.31 1.173.31 1.804 0 .407-.059.756-.194 1.134l-.02.058-.058.02c-.94.262-1.474 1.018-1.716 1.823-.088.3.155.61.475.61h.747a.485.485 0 00.436-.27c.165-.36.514-.65 1.105-.65.446 0 .94.203 1.503.446.728.31 1.562.65 2.512.65 1.629 0 2.764-1.019 3.054-2.687a.38.38 0 00-.378-.456z" fill="#1652F0"/></svg>