<svg width="32" height="32" fill="none" xmlns="http://www.w3.org/2000/svg"><path d="M16 0C7.176 0 0 7.176 0 16s7.176 16 16 16 16-7.176 16-16S24.824 0 16 0zm0 30.06C8.242 30.06 1.94 23.759 1.94 16 1.94 8.242 8.241 1.94 16 1.94c7.758 0 14.06 6.302 14.06 14.06 0 7.758-6.302 14.06-14.06 14.06z" fill="#1652F0"/><path fill-rule="evenodd" clip-rule="evenodd" d="M15.583 23h1.834v-4.643h3.055V17.12h-3.055v-.928h3.055v-1.239h-2.75L22 10h-2.139L16.5 14.024 13.139 10H11l4.278 4.952h-2.75v1.239h3.055v.928l-3.055-.026v1.264h3.055V23z" fill="#1652F0"/></svg>