<svg width="32" height="32" fill="none" xmlns="http://www.w3.org/2000/svg"><path d="M28.5 7h-25C2.67 7 2 7.67 2 8.5v15c0 .83.67 1.5 1.5 1.5h25c.83 0 1.5-.67 1.5-1.5v-15c0-.83-.67-1.5-1.5-1.5zm.5 16.5c0 .28-.22.5-.5.5h-25c-.28 0-.5-.22-.5-.5v-15c0-.28.22-.5.5-.5h25c.28 0 .5.22.5.5v15z" fill="#1652F0"/><path d="M26 19h-9v1h9v-1zM26 16h-9v1h9v-1zM26 13h-9v1h9v-1zM9.5 15a2.5 2.5 0 000-5 2.5 2.5 0 000 5zm0-4c.83 0 1.5.67 1.5 1.5S10.33 14 9.5 14 8 13.33 8 12.5 8.67 11 9.5 11zM9.5 16C7.02 16 5 18.02 5 20.5v1c0 .28.22.5.5.5h8c.28 0 .5-.22.5-.5v-1c0-2.48-2.02-4.5-4.5-4.5zm3.5 5H6v-.5C6 18.57 7.57 17 9.5 17s3.5 1.57 3.5 3.5v.5z" fill="#1652F0"/></svg>