<svg width="32" height="32" xmlns="http://www.w3.org/2000/svg"><g fill="#1652F0" fill-rule="evenodd"><path d="M16 0c8.837 0 16 7.163 16 16s-7.163 16-16 16S0 24.837 0 16 7.163 0 16 0zm0 1.5C7.992 1.5 1.5 7.992 1.5 16S7.992 30.5 16 30.5 30.5 24.008 30.5 16 24.008 1.5 16 1.5z"/><path d="M15.111 9.778V16a.889.889 0 00.889.889h6.222V15.11H16.89V9.778H15.11z"/><path d="M8.46 8.46A10.667 10.667 0 119.6 24.528L8 26.668l-2.133-6.045 6.4.356-1.6 2.133A8.903 8.903 0 107.11 16H5.333a10.678 10.678 0 013.128-7.54z"/></g></svg>