<svg width="32" height="32" fill="none" xmlns="http://www.w3.org/2000/svg"><path d="M16 2.286C8.434 2.286 2.286 8.434 2.286 16c0 7.566 6.148 13.714 13.714 13.714 7.566 0 13.714-6.148 13.714-13.714 0-7.566-6.148-13.714-13.714-13.714zm0 26.285C9.063 28.571 3.428 22.937 3.428 16 3.428 9.063 9.063 3.428 16 3.428 22.937 3.428 28.57 9.063 28.57 16c0 6.937-5.634 12.571-12.571 12.571z" fill="#1652F0"/><path d="M16 22.286a6.256 6.256 0 01-5.257-2.857h2.114v-1.143H9.43a.566.566 0 00-.572.571v3.429H10v-1.909a7.421 7.421 0 006 3.052c4.091 0 7.429-3.338 7.429-7.429h-1.143c0 3.463-2.823 6.286-6.286 6.286zM16 9.714a6.256 6.256 0 015.257 2.857h-2.114v1.143h3.428c.32 0 .572-.251.572-.571V9.714H22v1.909a7.422 7.422 0 00-6-3.052c-4.092 0-7.429 3.337-7.429 7.429h1.143c0-3.463 2.823-6.286 6.286-6.286z" fill="#1652F0"/></svg>