<svg width="32" height="32" fill="none" xmlns="http://www.w3.org/2000/svg"><path d="M16 2.35c-7.543 0-13.714 6.172-13.714 13.715S8.457 29.779 16 29.779s13.714-6.171 13.714-13.714S23.543 2.35 16 2.35zm0 26.286c-6.972 0-12.572-5.6-12.572-12.571 0-6.972 5.6-12.572 12.572-12.572 6.971 0 12.571 5.6 12.571 12.572 0 6.971-5.6 12.571-12.571 12.571z" fill="#1652F0"/><path d="M19.428 17.208a2.292 2.292 0 00-2.285 2.286 2.292 2.292 0 002.285 2.285 2.292 2.292 0 002.286-2.285 2.292 2.292 0 00-2.285-2.286zm0 3.428c-.685 0-1.142-.457-1.142-1.142 0-.686.457-1.143 1.142-1.143.686 0 1.143.457 1.143 1.143 0 .685-.457 1.142-1.143 1.142zM14.857 12.636a2.292 2.292 0 00-2.286-2.285 2.292 2.292 0 00-2.285 2.285 2.292 2.292 0 002.285 2.286 2.292 2.292 0 002.286-2.286zm-3.428 0c0-.685.457-1.143 1.142-1.143.686 0 1.143.458 1.143 1.143 0 .686-.457 1.143-1.143 1.143-.685 0-1.143-.457-1.143-1.143zM18.98 9.989L12.1 21.455l.98.588 6.88-11.466-.98-.588z" fill="#1652F0"/></svg>