<svg width="32" height="32" fill="none" xmlns="http://www.w3.org/2000/svg"><path d="M16 2.286C8.434 2.286 2.286 8.434 2.286 16c0 7.566 6.148 13.714 13.714 13.714 7.566 0 13.714-6.148 13.714-13.714 0-7.566-6.148-13.714-13.714-13.714zm0 26.285c-6.937 0-12.572-5.634-12.572-12.57C3.428 9.062 9.063 3.428 16 3.428 22.937 3.429 28.57 9.063 28.57 16c0 6.937-5.634 12.572-12.571 12.572z" fill="#1652F0"/><path d="M16.571 19.76v-9.474h-1.143v9.474l-2.457-2.457-.811.811 3.428 3.429a.58.58 0 00.412.171.536.536 0 00.4-.171l3.428-3.429-.81-.811-2.447 2.457z" fill="#1652F0"/></svg>