<svg width="32" height="32" fill="none" xmlns="http://www.w3.org/2000/svg"><path d="M16 29.714C8.434 29.714 2.286 23.566 2.286 16 2.286 8.434 8.434 2.286 16 2.286c7.566 0 13.714 6.148 13.714 13.714 0 7.566-6.148 13.714-13.714 13.714zM16 3.43c-6.937 0-12.572 5.634-12.572 12.57 0 6.938 5.635 12.572 12.572 12.572 6.937 0 12.571-5.634 12.571-12.571 0-6.937-5.634-12.571-12.571-12.571z" fill="#1652F0"/><path d="M16.571 12.24v9.474h-1.143V12.24l-2.457 2.457-.811-.811 3.428-3.429a.58.58 0 01.412-.171c.148 0 .297.057.4.171l3.428 3.429-.81.811-2.447-2.457z" fill="#1652F0"/></svg>