<svg width="12" height="12" xmlns="http://www.w3.org/2000/svg"><g fill="#1652F0" fill-rule="nonzero"><path d="M6 .5a5.5 5.5 0 100 11 5.5 5.5 0 000-11zm0 1a4.5 4.5 0 110 9 4.5 4.5 0 010-9z"/><path d="M6.5 8.5v.652h-1V8.5zM3.978 4.913c0-1.296 1.2-2.264 2.495-1.965A2.018 2.018 0 017.97 4.444 2.025 2.025 0 017.119 6.6l-.143.087c-.263.145-.43.367-.468.612l-.008.107v.334h-1v-.334c0-.67.388-1.262.993-1.594.4-.222.61-.674.502-1.142a1.019 1.019 0 00-.746-.747 1.023 1.023 0 00-1.265.877l-.006.114v.218h-1v-.218z"/></g></svg>