<svg width="16" height="16" fill="none" xmlns="http://www.w3.org/2000/svg"><path fill-rule="evenodd" clip-rule="evenodd" d="M9.97 2a.307.307 0 00-.284.2.33.33 0 00.068.35l1.501 1.58-2.64 2.77-4.517 4.744a.338.338 0 00-.092.227c0 .084.03.168.092.226l1.194 1.256H.615v-4.92L1.81 9.69c.117.123.32.123.437 0l5.662-5.954-.437-.46-5.44 5.722L.523 7.43a.282.282 0 00-.332-.07.317.317 0 00-.191.297v6.02c0 .18.135.323.308.323H6.03a.307.307 0 00.283-.2.33.33 0 00-.068-.35l-1.501-1.58 2.64-2.763 4.517-4.751a.338.338 0 00.092-.227.311.311 0 00-.092-.226l-1.194-1.256h4.677v4.92L14.19 6.31a.305.305 0 00-.437 0l-5.662 5.954.437.46 5.44-5.722 1.502 1.58c.086.09.221.123.332.07a.337.337 0 00.197-.31v-6.02A.313.313 0 0015.692 2H9.97z" fill="#1652F0"/></svg>