<svg width="16" height="16" fill="none" xmlns="http://www.w3.org/2000/svg"><path fill-rule="evenodd" clip-rule="evenodd" d="M14.803 4.128L8.185 1.04a.452.452 0 00-.37 0L1.197 4.128a.435.435 0 00-.256.397v1.323c0 .247.195.442.442.442h1.544v5.735h.882V6.289h2.206v5.736h.882V6.289h2.206v5.736h.882V6.289h2.206v5.736h.882V6.289h1.544a.437.437 0 00.441-.44V4.524a.434.434 0 00-.255-.397zm-.627 1.28H1.824v-.6L8 1.921l6.176 2.885v.6z" fill="#1652EF"/><path d="M14.617 12.907H1.383a.437.437 0 00-.442.441v2.206c0 .247.195.441.442.441h13.234a.437.437 0 00.441-.441v-2.206a.437.437 0 00-.44-.441zm-.44 2.206H1.823v-1.324h12.352v1.324z" fill="#1652F0"/></svg>