<svg width="16" height="16" fill="none" xmlns="http://www.w3.org/2000/svg"><path fill-rule="evenodd" clip-rule="evenodd" d="M14.75 3H2.25C1.558 3 1 3.558 1 4.25v7.5c0 .692.558 1.25 1.25 1.25h12.5c.692 0 1.25-.558 1.25-1.25v-7.5C16 3.558 15.442 3 14.75 3zm.417 8.75a.413.413 0 01-.417.417H2.25a.413.413 0 01-.417-.417V6.333h13.334v5.417zM1.833 5.5V4.25c0-.233.184-.417.417-.417h12.5c.233 0 .417.184.417.417V5.5H1.833z" fill="#1652F0"/><path fill-rule="evenodd" clip-rule="evenodd" d="M7.667 9.25h-5v.833h5V9.25z" fill="#1652F0"/></svg>