<svg width="16" height="16" fill="none" xmlns="http://www.w3.org/2000/svg"><path fill-rule="evenodd" clip-rule="evenodd" d="M8 0C3.59 0 0 3.59 0 8s3.59 8 8 8 8-3.59 8-8-3.59-8-8-8zm0 15c-3.86 0-7-3.14-7-7s3.14-7 7-7 7 3.14 7 7-3.14 7-7 7z" fill="#1652F0"/><path fill-rule="evenodd" clip-rule="evenodd" d="M9 7.5h-.5v-2H10v-1H8.5v-1h-1v1H7c-1.1 0-2 .9-2 2s.9 2 2 2h.5v2H6v1h1.5v1h1v-1H9c1.1 0 2-.9 2-2s-.9-2-2-2zm-2 0c-.55 0-1-.45-1-1s.45-1 1-1h.5v2H7zm2 3h-.5v-2H9c.55 0 1 .45 1 1s-.45 1-1 1z" fill="#1652F0"/></svg>