<svg width="16" height="16" xmlns="http://www.w3.org/2000/svg"><path d="M12 0a4 4 0 014 4v8a4 4 0 01-4 4H4a4 4 0 01-4-4V4a4 4 0 014-4h8zM7.88 10.448a.87.87 0 00-.64.27.956.956 0 00-.263.67.9.9 0 00.278.694c.174.16.4.248.631.245a.892.892 0 00.632-.251.91.91 0 00.259-.695.921.921 0 00-.265-.662.87.87 0 00-.632-.271zm.07-6.855a.876.876 0 00-.682.291c-.181.22-.274.505-.26.794 0 .232.02.603.051 1.138l.17 2.7c.016.279.074.554.171.814a.503.503 0 00.486.31.516.516 0 00.493-.317c.092-.247.141-.509.145-.774l.234-2.772c.024-.246.037-.494.038-.741a2.435 2.435 0 00-.164-1.006.705.705 0 00-.682-.437z" fill="#FFAE24" fill-rule="evenodd"/></svg>