<svg width="16" height="16" fill="none" xmlns="http://www.w3.org/2000/svg"><path d="M8.5 0C4.366 0 1 3.366 1 7.5S4.366 15 8.5 15 16 11.634 16 7.5 12.634 0 8.5 0zm0 14.063A6.57 6.57 0 011.937 7.5 6.57 6.57 0 018.5.937 6.57 6.57 0 0115.063 7.5 6.57 6.57 0 018.5 14.063z" fill="#1652F0"/><path d="M13.656 7.031H10.31A1.87 1.87 0 008.5 5.625 1.88 1.88 0 006.625 7.5 1.88 1.88 0 008.5 9.375c.872 0 1.603-.6 1.81-1.406h3.346a.464.464 0 00.469-.469.464.464 0 00-.469-.469zM8.5 8.438a.94.94 0 01-.938-.938.94.94 0 01.938-.938.94.94 0 01.938.938.94.94 0 01-.938.938zM13.197 5.325a.474.474 0 00.178-.638.46.46 0 00-.637-.168.463.463 0 00-.17.637c.132.225.404.3.629.169zM10.844 3.44a.463.463 0 00.637-.168.473.473 0 00-.168-.647.463.463 0 00-.638.169.471.471 0 00.169.647zM8.5 2.813a.469.469 0 100-.938.469.469 0 000 .938zM5.688 2.625a.473.473 0 00-.17.647c.132.225.413.3.638.169a.463.463 0 00.17-.638.474.474 0 00-.638-.178zM4.272 4.519a.473.473 0 00-.647.168.474.474 0 00.178.638.463.463 0 00.638-.169.463.463 0 00-.17-.637zM3.344 7.969a.469.469 0 100-.938.469.469 0 000 .938zM3.803 9.675a.474.474 0 00-.178.637c.131.226.412.3.637.17a.463.463 0 00.17-.638.45.45 0 00-.629-.169zM13.197 9.675a.463.463 0 00-.637.169.462.462 0 00.168.637.463.463 0 00.638-.168.463.463 0 00-.169-.638z" fill="#1652F0"/></svg>