<svg width="16" height="16" xmlns="http://www.w3.org/2000/svg"><g fill="#1652F0" fill-rule="nonzero"><path d="M10.012.5H5.745v1.785l-.226.089c-.474.2-.918.458-1.327.772L4 3.3l-1.55-.892L.317 6.102l1.551.893-.03.19a5.803 5.803 0 00-.06.815l.007.273c.01.183.027.367.053.55l.03.182-1.551.893 2.133 3.694L4 12.699l.192.155c.409.314.853.573 1.327.772l.226.088V15.5h4.267v-1.786l.227-.088c.473-.2.918-.458 1.326-.772l.191-.155 1.551.893 2.134-3.694-1.552-.893.03-.18c.04-.275.06-.55.06-.825l-.007-.275a5.907 5.907 0 00-.052-.55l-.031-.181 1.552-.892-2.134-3.694-1.551.892-.19-.154a6.005 6.005 0 00-1.327-.772l-.227-.089V.5zm-1 1v1.513l.355.108a5.022 5.022 0 011.987 1.155l.27.254 1.317-.757 1.133 1.962-1.316.757.084.361c.09.387.137.767.137 1.147s-.047.76-.137 1.147l-.084.361 1.316.756-1.133 1.962-1.317-.756-.27.254a5.021 5.021 0 01-1.987 1.155l-.355.107V14.5H6.745v-1.514l-.355-.107a5.022 5.022 0 01-1.986-1.155l-.27-.254-1.318.757-1.133-1.962 1.316-.757-.084-.361A5.104 5.104 0 012.779 8c0-.371.046-.751.137-1.15l.081-.36-1.314-.756 1.133-1.962 1.317.758.27-.254A5.022 5.022 0 016.39 3.121l.355-.108V1.5h2.267z"/><path d="M7.879 6.133a1.864 1.864 0 011.615 2.8 1.87 1.87 0 01-1.615.933 1.864 1.864 0 01-1.615-2.8 1.858 1.858 0 011.615-.933zm0-.933c-.971 0-1.914.504-2.427 1.4a2.799 2.799 0 002.427 4.2c.97 0 1.913-.504 2.426-1.4A2.799 2.799 0 007.88 5.2z"/></g></svg>