<svg width="16" height="16" xmlns="http://www.w3.org/2000/svg"><path d="M8.339.113l7.094 5.423c.356.276.57.703.57 1.147v7.868c0 .8-.65 1.449-1.441 1.449h-4.445a.548.548 0 01-.551-.551V9.564H6.454v5.885a.548.548 0 01-.551.551H1.458A1.45 1.45 0 010 14.56V6.683c0-.444.213-.88.569-1.147L7.663.113a.56.56 0 01.676 0zM8 1.251L1.245 6.425a.338.338 0 00-.134.258v7.868c0 .187.151.338.338.338h3.885V9.003c0-.31.249-.56.551-.56h4.223c.311 0 .551.25.551.552v5.894h3.903a.338.338 0 00.338-.338V6.683a.341.341 0 00-.133-.267L8 1.251z" fill="#1652F0" fill-rule="nonzero"/></svg>