<svg width="16" height="16" xmlns="http://www.w3.org/2000/svg"><g fill="#1652F0" fill-rule="nonzero"><path d="M13-.4H3A3.4 3.4 0 00-.4 3v10A3.4 3.4 0 003 16.4h10a3.4 3.4 0 003.4-3.4V3A3.4 3.4 0 0013-.4zM3 1h10a2 2 0 012 2v10a2 2 0 01-2 2H3a2 2 0 01-2-2V3a2 2 0 012-2z"/><path d="M12.637 3.625H3.364a.613.613 0 000 1.225h9.274a.612.612 0 100-1.225zM12.637 6.25H3.364a.613.613 0 000 1.225h9.274a.612.612 0 100-1.225zM12.637 8.875H3.364a.613.613 0 000 1.225h9.274a.612.612 0 100-1.225zM12.637 11.5H3.364a.612.612 0 100 1.225h9.274a.612.612 0 100-1.225z"/></g></svg>