<svg width="16" height="16" fill="none" xmlns="http://www.w3.org/2000/svg"><path d="M14 5.333h-2.222V3.556C11.778 1.6 10.178 0 8.222 0a3.566 3.566 0 00-3.555 3.556v1.777H2.444c-.266 0-.444.178-.444.445v9.778c0 .266.178.444.444.444H14c.267 0 .444-.178.444-.444V5.778c0-.267-.177-.445-.444-.445zM5.556 3.556C5.556 2.044 6.71.889 8.222.889s2.667 1.155 2.667 2.667v1.777H5.556V3.556zm8 11.555H2.889V6.222H13.556v8.89z" fill="#1652F0"/><path d="M8.222 8c-.978 0-1.778.8-1.778 1.778 0 .8.534 1.51 1.334 1.689v1.866h.889v-1.866A1.713 1.713 0 0010 9.777C10 8.8 9.2 8 8.222 8zm0 2.667c-.533 0-.889-.356-.889-.89 0-.533.356-.888.89-.888.532 0 .888.355.888.889 0 .533-.356.889-.889.889z" fill="#1652F0"/></svg>