<svg width="16" height="16" xmlns="http://www.w3.org/2000/svg"><path d="M13.466 2l.631.631-11.56 11.56-.632-.63 1.52-1.53A9.697 9.697 0 01.048 8.296a.471.471 0 010-.41c1.636-3.165 4.677-5.13 7.95-5.13 1.214 0 2.384.291 3.475.799l.295.143L13.466 2zm-.25 2.606a9.974 9.974 0 012.73 3.28.419.419 0 010 .41c-1.636 3.166-4.677 5.131-7.95 5.131A8.004 8.004 0 015 12.831l.685-.685c.738.25 1.52.392 2.312.392 2.863 0 5.549-1.699 7.052-4.447a8.85 8.85 0 00-2.464-2.854zm-5.22-.96c-2.863 0-5.548 1.698-7.051 4.445a8.739 8.739 0 002.862 3.122l.268.169 1.76-1.761a2.586 2.586 0 01-.506-1.53c0-1.467 1.2-2.667 2.668-2.667.505 0 .964.156 1.362.398l.167.109L11.1 4.357a7.31 7.31 0 00-3.103-.712zM10.532 7.3c.08.249.133.516.133.791 0 1.468-1.2 2.668-2.667 2.668a2.59 2.59 0 01-.792-.133l.756-.756h.036c.978 0 1.778-.791 1.778-1.779v-.035zm-2.534-.987c-.979 0-1.779.8-1.779 1.778 0 .275.068.536.178.765l.071.134 2.428-2.428a1.814 1.814 0 00-.898-.25z" fill="#1652F0" fill-rule="evenodd"/></svg>