<svg width="16" height="16" fill="none" xmlns="http://www.w3.org/2000/svg"><path d="M14 4.49c-.14-.16-.31-.31-.5-.44.01-.11 0-.21.01-.32 0-.08.02-.18.02-.26 0-.04-.01-.07-.01-.1a3.4 3.4 0 00-.06-.46c-.02-.1-.03-.21-.05-.3-.04-.16-.11-.31-.17-.46-.03-.06-.04-.14-.08-.2-.01-.01-.01-.02-.02-.03-.13-.21-.27-.42-.44-.62C11.94.44 10.62 0 8.77 0H4.1c-.57 0-1.06.41-1.15.99l-1.94 12.3c-.04.26.03.52.2.73.17.21.42.32.68.32h2.29l-.11.68c-.04.25.03.5.19.68.16.19.4.3.65.3h2.43c.54 0 .99-.38 1.07-.9l.48-3.02.03-.17c.01-.04.04-.07.08-.07h.36c2.93 0 4.69-1.39 5.22-4.12.28-1.38.08-2.47-.58-3.23zm-7.72-.16l4.23.01c.41 0 .79.03 1.13.08.09.01.19.03.28.05.09.02.17.04.26.07l.12.04c.03.01.06.03.09.04-.53 2.5-2.13 3.72-4.88 3.72H6.15l.62-3.94-.49-.07zm-4.26 9.01l1.92-12.2c.01-.08.08-.14.16-.14h4.66c1.55 0 2.62.32 3.18.96.12.14.21.28.3.42.03.04.04.09.07.14.05.11.09.22.12.33.01.05.03.11.04.16.03.13.04.28.04.43 0 .04.01.07.01.12v.04l-.07-.02c-.1-.03-.21-.06-.32-.08-.11-.03-.22-.05-.34-.06-.39-.06-.82-.09-1.29-.09H6.85c-.16 0-.32.04-.47.11-.32.13-.54.44-.6.79l-.77 4.92-.66 4.16H2.02v.01zm11.59-5.82c-.43 2.23-1.82 3.31-4.24 3.31h-.36c-.54 0-.99.38-1.07.9l-.49 3.05-.03.14c.01.05-.03.08-.07.08H5.1l.17-1.08v-.01l.7-4.44c.01-.08.08-.14.16-.14H7.5c3.12 0 5.04-1.41 5.76-4.15.44.53.56 1.29.35 2.34z" fill="#1652F0"/></svg>