<svg width="16" height="16" fill="none" xmlns="http://www.w3.org/2000/svg"><path d="M7.74 7.333a3.668 3.668 0 01-3.662-3.662A3.67 3.67 0 017.74 0a3.663 3.663 0 013.663 3.662c0 2.018-1.645 3.671-3.663 3.671zm0-6.222a2.56 2.56 0 00-2.56 2.56 2.56 2.56 0 005.12-.009 2.559 2.559 0 00-2.56-2.55zM14.034 16H1.438c-.462 0-.907-.222-1.173-.604a1.472 1.472 0 01-.187-1.316c.56-1.627 2.436-5.413 7.662-5.413 5.227 0 7.103 3.786 7.663 5.413.15.444.08.933-.187 1.316-.276.382-.72.604-1.182.604zM7.74 9.778c-4.346 0-6.009 2.924-6.613 4.666a.325.325 0 00.044.312.323.323 0 00.267.142h12.596a.31.31 0 00.266-.142c.027-.045.098-.16.045-.312-.596-1.742-2.258-4.666-6.605-4.666z" fill="#1652F0"/></svg>