<svg width="16" height="16" xmlns="http://www.w3.org/2000/svg"><path d="M7.316.985c.23-.647 1.145-.647 1.374 0l1.553 4.694h5.033c.661 0 .964.805.504 1.239l-.08.065-4.059 2.893 1.55 4.687c.196.63-.481 1.153-1.028.853l-.08-.05-4.08-2.903-4.077 2.907c-.544.373-1.261-.107-1.126-.722l.027-.094 1.546-4.677-4.06-2.889c-.563-.386-.318-1.22.315-1.302L.73 5.68h5.033zm.687 1.106L6.486 6.679H1.603L5.555 9.49l-1.511 4.567 3.959-2.821 3.967 2.823-1.51-4.568 3.944-2.812H9.521L8.003 2.091z" fill="#1652F0" fill-rule="nonzero"/></svg>