<svg width="16" height="16" fill="none" xmlns="http://www.w3.org/2000/svg"><path d="M15.947 8.131C14.31 4.965 11.269 3 7.997 3 4.724 3 1.683 4.965.047 8.131a.471.471 0 000 .41c1.636 3.165 4.677 5.13 7.95 5.13 3.272 0 6.313-1.965 7.95-5.13a.418.418 0 000-.41zm-7.95 4.65c-2.864 0-5.55-1.698-7.052-4.445 1.503-2.748 4.188-4.447 7.052-4.447 2.863 0 5.549 1.699 7.052 4.447-1.503 2.747-4.189 4.446-7.052 4.446z" fill="#1652F0"/><path d="M7.997 5.668a2.676 2.676 0 00-2.668 2.668c0 1.467 1.2 2.667 2.668 2.667 1.467 0 2.667-1.2 2.667-2.667 0-1.468-1.2-2.668-2.667-2.668zm0 4.446c-.979 0-1.779-.8-1.779-1.778 0-.979.8-1.779 1.779-1.779.978 0 1.778.8 1.778 1.779 0 .978-.8 1.778-1.778 1.778z" fill="#1652F0"/></svg>