<svg width="16" height="16" fill="none" xmlns="http://www.w3.org/2000/svg"><path d="M16 7.432V.826C16 .37 15.803 0 15.56 0h-.881c-.244 0-.44.37-.44.826v6.606c0 .456.196.826.44.826h.88c.244 0 .441-.37.441-.826zM11.596 14.968V4.645c0-.285-.197-.516-.44-.516h-.882c-.243 0-.44.231-.44.516v10.323c0 .285.197.516.44.516h.881c.244 0 .44-.231.44-.516zM7.191 12.903V.516c0-.285-.197-.516-.44-.516h-.88c-.244 0-.441.231-.441.516v12.387c0 .285.197.516.44.516h.881c.243 0 .44-.23.44-.516zM2.787 14.968V6.71c0-.57-.197-1.033-.44-1.033h-.881c-.243 0-.44.463-.44 1.033v8.258c0 .57.197 1.032.44 1.032h.88c.244 0 .441-.462.441-1.032z" fill="#1652F0"/></svg>