<svg width="16" height="16" fill="none" xmlns="http://www.w3.org/2000/svg"><path d="M15.667 3.667h-2.334V1.333A.33.33 0 0013 1H1.667C.747 1 0 1.747 0 2.667V14c0 .92.747 1.667 1.667 1.667h14a.33.33 0 00.333-.334V4a.33.33 0 00-.333-.333zm-14-2h11v2h-11c-.554 0-1-.447-1-1 0-.554.446-1 1-1zm0 13.333c-.554 0-1-.447-1-1V4c.013.007.026.02.04.027.026.02.06.033.086.053.06.033.114.067.174.093.033.014.066.034.1.04.066.027.133.047.2.06.033.007.06.02.093.02.1.027.2.04.307.04h13.666v3.334h-3.666a.33.33 0 00-.334.333v3.333a.33.33 0 00.334.334h3.666V15H1.667zm13.666-4H12V8.333h3.333V11z" fill="#1652F0"/></svg>