<svg width="18" height="18" viewBox="0 0 18 18" fill="none" xmlns="http://www.w3.org/2000/svg">
<path d="M9.05 8C11.15 8 12.85 6.3 12.85 4.2C12.85 2.1 11.05 0.5 9.05 0.5C7.05 0.5 5.25 2.2 5.25 4.3C5.25 6.4 6.95 8 9.05 8ZM9.05 1.5C10.55 1.5 11.85 2.7 11.85 4.3C11.85 5.9 10.65 7.1 9.05 7.1C7.45 7.1 6.25 5.8 6.25 4.3C6.25 2.8 7.45 1.5 9.05 1.5Z" fill="#1652F0"/>
<path d="M17.75 15.5C16.95 13.3 14.75 9.5 8.94995 9.5C3.14995 9.5 0.94995 13.3 0.14995 15.5C-0.0500497 16 0.0499503 16.5 0.34995 16.9C0.74995 17.3 1.14995 17.5 1.64995 17.5H16.35C16.85 17.5 17.3499 17.3 17.5499 16.9C17.8499 16.5 17.95 16 17.75 15.5ZM16.75 16.3C16.65 16.4 16.55 16.5 16.35 16.5H1.64995C1.44995 16.5 1.34995 16.4 1.24995 16.3C1.14995 16.2 1.14995 16 1.14995 15.8C1.84995 13.8 3.84995 10.5 8.94995 10.5C14.0499 10.5 16.0499 13.8 16.75 15.8C16.85 16 16.85 16.2 16.75 16.3Z" fill="#1652F0"/>
</svg>
