<svg width="28" height="28" viewBox="0 0 28 28" fill="none" xmlns="http://www.w3.org/2000/svg">
<path d="M14 14.75C11.79 14.75 10 12.96 10 10.75C10 8.54 11.79 6.75 14 6.75C16.21 6.75 18 8.54 18 10.75C18 12.96 16.21 14.75 14 14.75ZM14 7.75C12.35 7.75 11 9.1 11 10.75C11 12.4 12.35 13.75 14 13.75C15.65 13.75 17 12.4 17 10.75C17 9.1 15.65 7.75 14 7.75Z" fill="#1652F0"/>
<path d="M14.0001 15.9199C9.55008 15.9199 7.36008 18.4499 6.33008 20.3999C6.56008 20.6699 6.80008 20.9299 7.05008 21.1699C7.95008 19.2599 9.89008 16.9099 14.0001 16.9099C18.1101 16.9099 20.0501 19.2599 20.9501 21.1699C21.2001 20.9199 21.4501 20.6699 21.6701 20.3999C20.6401 18.4499 18.4501 15.9199 14.0001 15.9199Z" fill="#1652F0"/>
<path d="M14 26C7.38 26 2 20.62 2 14C2 7.38 7.38 2 14 2C20.62 2 26 7.38 26 14C26 20.62 20.62 26 14 26ZM14 3C7.93 3 3 7.93 3 14C3 20.07 7.93 25 14 25C20.07 25 25 20.07 25 14C25 7.93 20.07 3 14 3Z" fill="#1652F0"/>
</svg>
