<svg width="28" height="28" viewBox="0 0 28 28" fill="none" xmlns="http://www.w3.org/2000/svg">
<path d="M7.68 20.5C7.76 20.16 7.87 19.82 8 19.5H2.5C2.22 19.5 2 19.72 2 20V24C2 24.28 2.22 24.5 2.5 24.5H8C7.87 24.18 7.76 23.84 7.68 23.5H3V20.5H7.68Z" fill="#1652F0"/>
<path d="M25.66 4.53L14.16 0.53C14.05 0.49 13.94 0.49 13.83 0.53L2.33 4.53C2.13 4.6 2 4.79 2 5V8C2 8.28 2.22 8.5 2.5 8.5H6V18H7V8.5H11V16.24C11.32 16.07 11.65 15.93 12 15.82V8.5H16V15.82C16.35 15.93 16.68 16.07 17 16.24V8.5H21V18H22V8.5H25.5C25.78 8.5 26 8.28 26 8V5C26 4.79 25.87 4.6 25.66 4.53ZM25 7.5H3V5.36L14 1.53L25 5.36V7.5Z" fill="#1652F0"/>
<path d="M25.5 19.5H20C20.13 19.82 20.24 20.16 20.32 20.5H25V23.5H20.32C20.24 23.84 20.13 24.18 20 24.5H25.5C25.78 24.5 26 24.28 26 24V20C26 19.72 25.78 19.5 25.5 19.5Z" fill="#1652F0"/>
<path d="M14 16.5C10.97 16.5 8.5 18.97 8.5 22C8.5 25.03 10.97 27.5 14 27.5C17.03 27.5 19.5 25.03 19.5 22C19.5 18.97 17.03 16.5 14 16.5ZM14 26.5C11.52 26.5 9.5 24.48 9.5 22C9.5 19.52 11.52 17.5 14 17.5C16.48 17.5 18.5 19.52 18.5 22C18.5 24.48 16.48 26.5 14 26.5Z" fill="#1652F0"/>
<path d="M14.5 20H13.5V21.5H12V22.5H13.5V24H14.5V22.5H16V21.5H14.5V20Z" fill="#1652F0"/>
</svg>
