<svg width="28" height="29" viewBox="0 0 28 29" fill="none" xmlns="http://www.w3.org/2000/svg">
<path d="M14 2.05762C7.38 2.05762 2 7.43762 2 14.0576C2 20.6776 7.38 26.0576 14 26.0576C20.62 26.0576 26 20.6776 26 14.0576C26 7.43762 20.62 2.05762 14 2.05762ZM14 25.0576C7.93 25.0576 3 20.1276 3 14.0576C3 7.98762 7.93 3.05762 14 3.05762C20.07 3.05762 25 7.98762 25 14.0576C25 20.1276 20.07 25.0576 14 25.0576Z" fill="#1652F0"/>
<path d="M14.3399 8.39752C13.2699 9.46752 13.1699 11.1375 14.0199 12.3275L8.58994 17.7575C8.38994 17.9575 8.38994 18.2675 8.58994 18.4675L10.5899 20.4675L11.2999 19.7575L9.64994 18.1075L10.9399 16.8175L12.0899 17.9675L12.7999 17.2575L11.6499 16.1075L14.7299 13.0275C15.2599 13.4075 15.8799 13.5975 16.4999 13.5975C17.2799 13.5975 18.0599 13.2975 18.6599 12.7075C19.8499 11.5175 19.8499 9.57752 18.6599 8.38752C17.4699 7.19752 15.5299 7.20752 14.3399 8.39752ZM17.9499 12.0075C17.1499 12.8075 15.8499 12.8075 15.0399 12.0075C14.2299 11.2075 14.2399 9.89752 15.0399 9.09752C15.4399 8.69752 15.9699 8.49752 16.4899 8.49752C17.0099 8.49752 17.5399 8.69752 17.9399 9.09752C18.7499 9.90752 18.7499 11.2075 17.9499 12.0075Z" fill="#1652F0"/>
</svg>
