<svg width="28" height="29" viewBox="0 0 28 29" fill="none" xmlns="http://www.w3.org/2000/svg">
<path d="M17.9 10.1572L17.2 10.8572L20.3 13.9572L17.2 17.0572L17.9 17.7572L21.4 14.2572C21.6 14.0572 21.6 13.7572 21.4 13.5572L17.9 10.1572Z" fill="#1652F0"/>
<path d="M10.1 10.1572L6.59995 13.6572C6.39995 13.8572 6.39995 14.1572 6.59995 14.3572L10.1 17.8572L10.8 17.1572L7.69995 14.0572L10.8 10.9572L10.1 10.1572Z" fill="#1652F0"/>
<path d="M15.5127 8.43715L11.5125 19.4316L12.4522 19.7735L16.4524 8.77905L15.5127 8.43715Z" fill="#1652F0"/>
<path d="M14 2.05762C7.4 2.05762 2 7.45762 2 14.0576C2 20.6576 7.4 26.0576 14 26.0576C20.6 26.0576 26 20.6576 26 14.0576C26 7.45762 20.6 2.05762 14 2.05762ZM14 25.0576C7.9 25.0576 3 20.1576 3 14.0576C3 7.95762 7.9 3.05762 14 3.05762C20.1 3.05762 25 7.95762 25 14.0576C25 20.1576 20.1 25.0576 14 25.0576Z" fill="#1652F0"/>
</svg>
