<svg width="28" height="29" viewBox="0 0 28 29" fill="none" xmlns="http://www.w3.org/2000/svg">
<path d="M14 2C7.38 2 2 7.38 2 14C2 20.62 7.38 26 14 26C20.62 26 26 20.62 26 14C26 7.38 20.62 2 14 2ZM14 25C7.93 25 3 20.07 3 14C3 7.93 7.93 3 14 3C20.07 3 25 7.93 25 14C25 20.07 20.07 25 14 25Z" fill="#1652F0"/>
<path d="M14.0001 8.5C10.8801 8.5 8.03012 10.53 6.54012 13.79C6.48012 13.92 6.48012 14.07 6.54012 14.2C8.03012 17.47 10.8801 19.5 14.0001 19.5C17.1201 19.5 19.9701 17.47 21.4601 14.21C21.5201 14.08 21.5201 13.93 21.4601 13.8C19.9701 10.53 17.1201 8.5 14.0001 8.5ZM14.0001 18.5C11.3501 18.5 8.89012 16.78 7.55012 14C8.89012 11.22 11.3501 9.5 14.0001 9.5C16.6501 9.5 19.1101 11.22 20.4501 14C19.1101 16.78 16.6501 18.5 14.0001 18.5Z" fill="#1652F0"/>
<path d="M14 11.5C12.62 11.5 11.5 12.62 11.5 14C11.5 15.38 12.62 16.5 14 16.5C15.38 16.5 16.5 15.38 16.5 14C16.5 12.62 15.38 11.5 14 11.5ZM14 15.5C13.17 15.5 12.5 14.83 12.5 14C12.5 13.17 13.17 12.5 14 12.5C14.83 12.5 15.5 13.17 15.5 14C15.5 14.83 14.83 15.5 14 15.5Z" fill="#1652F0"/>
</svg>
