<svg width="28" height="29" viewBox="0 0 28 29" fill="none" xmlns="http://www.w3.org/2000/svg">
<path d="M14 2.05762C7.38 2.05762 2 7.43762 2 14.0576C2 20.6776 7.38 26.0576 14 26.0576C20.62 26.0576 26 20.6776 26 14.0576C26 7.43762 20.62 2.05762 14 2.05762ZM14 25.0576C7.93 25.0576 3 20.1276 3 14.0576C3 7.98762 7.93 3.05762 14 3.05762C20.07 3.05762 25 7.98762 25 14.0576C25 20.1276 20.07 25.0576 14 25.0576Z" fill="#1652F0"/>
<path d="M17.8499 7.20762C17.6499 7.00762 17.3399 7.00762 17.1399 7.20762L9.1399 15.2076C9.0799 15.2676 9.0299 15.3476 9.0099 15.4376L8.0099 19.4376C7.9699 19.6076 8.0199 19.7876 8.1399 19.9076C8.2399 20.0076 8.3699 20.0576 8.4999 20.0576C8.5399 20.0576 8.5799 20.0576 8.6199 20.0476L12.6199 19.0476C12.7099 19.0276 12.7899 18.9776 12.8499 18.9176L20.8499 10.9176C21.0499 10.7176 21.0499 10.4076 20.8499 10.2076L17.8499 7.20762ZM9.7699 16.5376L11.5199 18.2876L9.1799 18.8676L9.7699 16.5376ZM12.4999 17.8476L10.2099 15.5576L15.4999 10.2676L17.7899 12.5576L12.4999 17.8476ZM18.4999 11.8476L16.2099 9.55762L17.4999 8.26762L19.7899 10.5576L18.4999 11.8476Z" fill="#1652F0"/>
</svg>
