<svg width="28" height="28" viewBox="0 0 28 28" fill="none" xmlns="http://www.w3.org/2000/svg">
<path d="M25.5 22H2.5C2.22 22 2 22.22 2 22.5V25.5C2 25.78 2.22 26 2.5 26H25.5C25.78 26 26 25.78 26 25.5V22.5C26 22.22 25.78 22 25.5 22ZM25 25H3V23H25V25Z" fill="#1652F0"/>
<path d="M25.66 6.03L14.16 2.03C14.05 1.99 13.94 1.99 13.83 2.03L2.33 6.03C2.13 6.1 2 6.29 2 6.5V9.5C2 9.78 2.22 10 2.5 10H6V21H7V10H11V21H12V10H16V21H17V10H21V21H22V10H25.5C25.78 10 26 9.78 26 9.5V6.5C26 6.29 25.87 6.1 25.66 6.03ZM25 9H3V6.86L14 3.03L25 6.86V9Z" fill="#1652F0"/>
</svg>
