<svg width="18" height="18" viewBox="0 0 18 18" fill="none" xmlns="http://www.w3.org/2000/svg">
<path d="M4.5 9H1.5C1.22 9 1 9.22 1 9.5V16.5C1 16.78 1.22 17 1.5 17H4.5C4.78 17 5 16.78 5 16.5V9.5C5 9.22 4.78 9 4.5 9ZM4 16H2V10H4V16Z" fill="#1652F0"/>
<path d="M10.5 1H7.5C7.22 1 7 1.22 7 1.5V16.5C7 16.78 7.22 17 7.5 17H10.5C10.78 17 11 16.78 11 16.5V1.5C11 1.22 10.78 1 10.5 1ZM10 16H8V2H10V16Z" fill="#1652F0"/>
<path d="M16.5 5H13.5C13.22 5 13 5.22 13 5.5V16.5C13 16.78 13.22 17 13.5 17H16.5C16.78 17 17 16.78 17 16.5V5.5C17 5.22 16.78 5 16.5 5ZM16 16H14V6H16V16Z" fill="#1652F0"/>
</svg>
