<svg width="28" height="28" viewBox="0 0 28 28" fill="none" xmlns="http://www.w3.org/2000/svg">
<path d="M25.5 7C25.8 7 26 6.8 26 6.5V2.5C26 2.2 25.8 2 25.5 2H21.5C21.2 2 21 2.2 21 2.5V4H16.5V2.5C16.5 2.2 16.3 2 16 2H12C11.7 2 11.5 2.2 11.5 2.5V4H7V2.5C7 2.2 6.8 2 6.5 2H2.5C2.2 2 2 2.2 2 2.5V6.5C2 6.8 2.2 7 2.5 7H4V11.5H2.5C2.2 11.5 2 11.7 2 12V16C2 16.3 2.2 16.5 2.5 16.5H4V21H2.5C2.2 21 2 21.2 2 21.5V25.5C2 25.8 2.2 26 2.5 26H6.5C6.8 26 7 25.8 7 25.5V24H11.5V25.5C11.5 25.8 11.7 26 12 26H16C16.3 26 16.5 25.8 16.5 25.5V24H21V25.5C21 25.8 21.2 26 21.5 26H25.5C25.8 26 26 25.8 26 25.5V21.5C26 21.2 25.8 21 25.5 21H24V16.5H25.5C25.8 16.5 26 16.3 26 16V12C26 11.7 25.8 11.5 25.5 11.5H24V7H25.5ZM22 3H25V6H22V3ZM12.5 3H15.5V6H12.5V3ZM3 3H6V6H3V3ZM3 12.5H6V15.5H3V12.5ZM6 25H3V22H6V25ZM15.5 25H12.5V22H15.5V25ZM25 25H22V22H25V25ZM25 15.5H22V12.5H25V15.5ZM23 11.5H21.5C21.2 11.5 21 11.7 21 12V16C21 16.3 21.2 16.5 21.5 16.5H23V21H21.5C21.2 21 21 21.2 21 21.5V23H16.5V21.5C16.5 21.2 16.3 21 16 21H12C11.7 21 11.5 21.2 11.5 21.5V23H7V21.5C7 21.2 6.8 21 6.5 21H5V16.5H6.5C6.8 16.5 7 16.3 7 16V12C7 11.7 6.8 11.5 6.5 11.5H5V7H6.5C6.8 7 7 6.8 7 6.5V5H11.5V6.5C11.5 6.8 11.7 7 12 7H16C16.3 7 16.5 6.8 16.5 6.5V5H21V6.5C21 6.8 21.2 7 21.5 7H23V11.5Z" fill="#1652F0"/>
<path d="M16.5 12C16.5 11.7 16.3 11.5 16 11.5H14.5V8H13.5V11.5H12C11.7 11.5 11.5 11.7 11.5 12V13.5H8V14.5H11.5V16C11.5 16.3 11.7 16.5 12 16.5H13.5V20H14.5V16.5H16C16.3 16.5 16.5 16.3 16.5 16V14.5H20V13.5H16.5V12ZM15.5 15.5H12.5V12.5H15.5V15.5Z" fill="#1652F0"/>
</svg>
