<svg width="18" height="18" viewBox="0 0 18 18" fill="none" xmlns="http://www.w3.org/2000/svg">
<path d="M16.5 6C16.8 6 17 5.8 17 5.5V1.5C17 1.2 16.8 1 16.5 1H12.5C12.2 1 12 1.2 12 1.5V3H6V1.5C6 1.2 5.8 1 5.5 1H1.5C1.2 1 1 1.2 1 1.5V5.5C1 5.8 1.2 6 1.5 6H3V12H1.5C1.2 12 1 12.2 1 12.5V16.5C1 16.8 1.2 17 1.5 17H5.5C5.8 17 6 16.8 6 16.5V15H12V16.5C12 16.8 12.2 17 12.5 17H16.5C16.8 17 17 16.8 17 16.5V12.5C17 12.2 16.8 12 16.5 12H15V6H16.5ZM13 2H16V5H13V2ZM2 2H5V5H2V2ZM5 16H2V13H5V16ZM16 16H13V13H16V16ZM14 12H12.5C12.2 12 12 12.2 12 12.5V14H6V12.5C6 12.2 5.8 12 5.5 12H4V6H5.5C5.8 6 6 5.8 6 5.5V4H12V5.5C12 5.8 12.2 6 12.5 6H14V12Z" fill="#1652F0"/>
</svg>
