<svg width="28" height="28" viewBox="0 0 28 28" fill="none" xmlns="http://www.w3.org/2000/svg">
<path d="M14.5 10V8.5H16V7.5H14.5V6H13.5V7.5H12V8.5H13.5V10H14.5Z" fill="#1652F0"/>
<path d="M8.81 11C8.29 10.1 8 9.08 8 8C8 4.69 10.69 2 14 2C17.31 2 20 4.69 20 8C20 9.06 19.72 10.09 19.19 11H20.29C20.74 10.07 21 9.05 21 8C21 4.14 17.86 1 14 1C10.14 1 7 4.14 7 8C7 9.06 7.24 10.08 7.67 11H8.81Z" fill="#1652F0"/>
<path d="M24.5 12H3.5C3.22 12 3 12.22 3 12.5V26.5C3 26.78 3.22 27 3.5 27H24.5C24.78 27 25 26.78 25 26.5V12.5C25 12.22 24.78 12 24.5 12ZM4 26V13H24V17H19.5C19.22 17 19 17.22 19 17.5V21.5C19 21.78 19.22 22 19.5 22H24V26H4ZM24 21H20V18H24V21Z" fill="#1652F0"/>
</svg>
