<svg width="28" height="28" viewBox="0 0 28 28" fill="none" xmlns="http://www.w3.org/2000/svg">
<path d="M24.5 23H3.5C2.67 23 2 22.33 2 21.5V9.5C2 8.67 2.67 8 3.5 8H8.23L9.49 6.11C9.96 5.42 10.73 5 11.57 5H16.43C17.27 5 18.05 5.42 18.51 6.11L19.77 8H24.5C25.33 8 26 8.67 26 9.5V21.5C26 22.33 25.33 23 24.5 23ZM3.5 9C3.22 9 3 9.22 3 9.5V21.5C3 21.78 3.22 22 3.5 22H24.5C24.78 22 25 21.78 25 21.5V9.5C25 9.22 24.78 9 24.5 9H19.5C19.33 9 19.18 8.92 19.08 8.78L17.67 6.67C17.4 6.25 16.93 6 16.43 6H11.57C11.07 6 10.6 6.25 10.32 6.67L8.92 8.78C8.82 8.92 8.67 9 8.5 9H3.5Z" fill="#1652F0"/>
<path d="M14 20C11.24 20 9 17.76 9 15C9 12.24 11.24 10 14 10C16.76 10 19 12.24 19 15C19 17.76 16.76 20 14 20ZM14 11C11.79 11 10 12.79 10 15C10 17.21 11.79 19 14 19C16.21 19 18 17.21 18 15C18 12.79 16.21 11 14 11Z" fill="#1652F0"/>
</svg>
