<svg width="28" height="28" viewBox="0 0 28 28" fill="none" xmlns="http://www.w3.org/2000/svg">
<path d="M14 2C7.38 2 2 7.38 2 14C2 20.62 7.38 26 14 26C20.62 26 26 20.62 26 14C26 7.38 20.62 2 14 2ZM14 25C7.93 25 3 20.07 3 14C3 7.93 7.93 3 14 3C20.07 3 25 7.93 25 14C25 20.07 20.07 25 14 25Z" fill="#1652F0"/>
<path d="M17.6499 10.0195L13.9999 13.6695L10.3499 10.0195L9.6499 10.7295L13.2899 14.3795L9.6499 18.0195L10.3499 18.7295L13.9999 15.0795L17.6499 18.7295L18.3499 18.0195L14.7099 14.3795L18.3499 10.7295L17.6499 10.0195Z" fill="#1652F0"/>
</svg>
