<svg width="18" height="18" viewBox="0 0 18 18" fill="none" xmlns="http://www.w3.org/2000/svg">
<path d="M16.82 1H4.18C3.53 1 3 1.53 3 2.18V6H4V4.5H17V9.82C17 9.92 16.92 10 16.82 10H16V11H16.82C17.47 11 18 10.47 18 9.82V2.18C18 1.53 17.47 1 16.82 1ZM17 3.5H4V2.18C4 2.08 4.08 2 4.18 2H16.82C16.92 2 17 2.08 17 2.18V3.5Z" fill="#1652F0"/>
<path d="M13.82 7H1.18C0.53 7 0 7.53 0 8.18V15.82C0 16.47 0.53 17 1.18 17H13.82C14.47 17 15 16.47 15 15.82V8.18C15 7.53 14.47 7 13.82 7ZM14 15.82C14 15.92 13.92 16 13.82 16H1.18C1.08 16 1 15.92 1 15.82V8.18C1 8.08 1.08 8 1.18 8H13.82C13.92 8 14 8.08 14 8.18V15.82Z" fill="#1652F0"/>
<path d="M10 12H2V13H10V12Z" fill="#1652F0"/>
<path d="M8 14H2V15H8V14Z" fill="#1652F0"/>
</svg>
