<svg width="28" height="28" viewBox="0 0 28 28" fill="none" xmlns="http://www.w3.org/2000/svg">
<path d="M14 2C7.38 2 2 7.38 2 14C2 20.62 7.38 26 14 26C20.62 26 26 20.62 26 14C26 7.38 20.62 2 14 2ZM14 25C7.93 25 3 20.07 3 14C3 7.93 7.93 3 14 3C20.07 3 25 7.93 25 14C25 20.07 20.07 25 14 25Z" fill="#1652F0"/>
<path d="M12.9999 16.7904L10.5999 14.3904L9.8999 15.1004L12.6499 17.8504C12.7399 17.9504 12.8699 18.0004 12.9999 18.0004C13.1299 18.0004 13.2599 17.9504 13.3499 17.8504L19.5999 11.6004L18.8999 10.9004L12.9999 16.7904Z" fill="#1652F0"/>
</svg>
