<svg width="28" height="28" viewBox="0 0 28 28" fill="none" xmlns="http://www.w3.org/2000/svg">
<g clip-path="url(#clip0)">
<path d="M14 25.4434C20.3513 25.4434 25.5 20.2946 25.5 13.9434C25.5 7.59208 20.3513 2.44336 14 2.44336C7.64873 2.44336 2.5 7.59208 2.5 13.9434C2.5 20.2946 7.64873 25.4434 14 25.4434Z" fill="white"/>
<path fill-rule="evenodd" clip-rule="evenodd" d="M14 2.94336C7.92487 2.94336 3 7.86823 3 13.9434C3 20.0185 7.92487 24.9434 14 24.9434C20.0751 24.9434 25 20.0185 25 13.9434C25 7.86823 20.0751 2.94336 14 2.94336ZM2 13.9434C2 7.31594 7.37258 1.94336 14 1.94336C20.6274 1.94336 26 7.31594 26 13.9434C26 20.5708 20.6274 25.9434 14 25.9434C7.37258 25.9434 2 20.5708 2 13.9434Z" fill="#1652F0"/>
<path d="M14 22.4434C18.6944 22.4434 22.5 18.6378 22.5 13.9434C22.5 9.24894 18.6944 5.44336 14 5.44336C9.30558 5.44336 5.5 9.24894 5.5 13.9434C5.5 18.6378 9.30558 22.4434 14 22.4434Z" fill="white"/>
<path fill-rule="evenodd" clip-rule="evenodd" d="M14 5.94336C9.58172 5.94336 6 9.52508 6 13.9434C6 18.3616 9.58172 21.9434 14 21.9434C18.4183 21.9434 22 18.3616 22 13.9434C22 9.52508 18.4183 5.94336 14 5.94336ZM5 13.9434C5 8.9728 9.02944 4.94336 14 4.94336C18.9706 4.94336 23 8.9728 23 13.9434C23 18.9139 18.9706 22.9434 14 22.9434C9.02944 22.9434 5 18.9139 5 13.9434Z" fill="#1652F0"/>
</g>
<defs>
<clipPath id="clip0">
<rect x="2" y="1.94336" width="24" height="24" fill="white"/>
</clipPath>
</defs>
</svg>
