<svg width="28" height="29" viewBox="0 0 28 29" fill="none" xmlns="http://www.w3.org/2000/svg">
<path d="M14 2.05762C7.38 2.05762 2 7.43762 2 14.0576C2 20.6776 7.38 26.0576 14 26.0576C20.62 26.0576 26 20.6776 26 14.0576C26 7.43762 20.62 2.05762 14 2.05762ZM14 25.0576C7.93 25.0576 3 20.1276 3 14.0576C3 7.98762 7.93 3.05762 14 3.05762C20.07 3.05762 25 7.98762 25 14.0576C25 20.1276 20.07 25.0576 14 25.0576Z" fill="#1652F0"/>
<path d="M19 15.5576C18.83 15.5576 18.66 15.5876 18.5 15.6276L15.37 9.99762C15.76 9.63762 16 9.12762 16 8.55762C16 7.45762 15.1 6.55762 14 6.55762C12.9 6.55762 12 7.45762 12 8.55762C12 9.12762 12.24 9.63762 12.62 10.0076L9.5 15.6276C9.34 15.5876 9.17 15.5576 9 15.5576C7.9 15.5576 7 16.4576 7 17.5576C7 18.6576 7.9 19.5576 9 19.5576C9.93 19.5576 10.71 18.9176 10.93 18.0576H17.07C17.29 18.9176 18.07 19.5576 19 19.5576C20.1 19.5576 21 18.6576 21 17.5576C21 16.4576 20.1 15.5576 19 15.5576ZM14 7.55762C14.55 7.55762 15 8.00762 15 8.55762C15 9.10762 14.55 9.55762 14 9.55762C13.45 9.55762 13 9.10762 13 8.55762C13 8.00762 13.45 7.55762 14 7.55762ZM13.5 10.4876C13.66 10.5276 13.83 10.5576 14 10.5576C14.17 10.5576 14.34 10.5276 14.5 10.4876L17.63 16.1176C17.36 16.3676 17.17 16.6976 17.08 17.0676H10.93C10.83 16.6976 10.64 16.3776 10.38 16.1176L13.5 10.4876ZM9 18.5576C8.45 18.5576 8 18.1076 8 17.5576C8 17.0076 8.45 16.5576 9 16.5576C9.55 16.5576 10 17.0076 10 17.5576C10 18.1076 9.55 18.5576 9 18.5576ZM19 18.5576C18.45 18.5576 18 18.1076 18 17.5576C18 17.0076 18.45 16.5576 19 16.5576C19.55 16.5576 20 17.0076 20 17.5576C20 18.1076 19.55 18.5576 19 18.5576Z" fill="#1652F0"/>
</svg>
