<svg width="28" height="28" viewBox="0 0 28 28" fill="none" xmlns="http://www.w3.org/2000/svg">
<path d="M9 22C4.59 22 1 18.41 1 14C1 9.59 4.59 6 9 6C10.14 6 11.23 6.24 12.21 6.68C12.48 6.43 12.76 6.2 13.05 5.98C11.84 5.36 10.46 5 9 5C4.04 5 0 9.04 0 14C0 18.96 4.04 23 9 23C10.46 23 11.84 22.64 13.06 22.02C12.77 21.8 12.48 21.57 12.22 21.32C11.23 21.76 10.14 22 9 22Z" fill="#1652F0"/>
<path d="M18.9999 5C14.5499 5 10.8499 8.25 10.1399 12.5H11.1499C11.8499 8.8 15.0999 6 18.9999 6C23.4099 6 26.9999 9.59 26.9999 14C26.9999 18.41 23.4099 22 18.9999 22C15.0999 22 11.8499 19.2 11.1499 15.5H10.1399C10.8499 19.75 14.5499 23 18.9999 23C23.9599 23 27.9999 18.96 27.9999 14C27.9999 9.04 23.9599 5 18.9999 5Z" fill="#1652F0"/>
<path d="M6.5 14.5004H18.07L15.42 17.1504L16.13 17.8604L19.63 14.3604C19.83 14.1604 19.83 13.8504 19.63 13.6504L16.13 10.1504L15.42 10.8604L18.07 13.5104H6.5V14.5004ZM18.57 14.0004L18.5 14.0704V13.9304L18.57 14.0004Z" fill="#1652F0"/>
</svg>
