<svg width="18" height="18" viewBox="0 0 18 18" fill="none" xmlns="http://www.w3.org/2000/svg">
<path d="M15.85 5.15L11.35 0.65C11.26 0.55 11.13 0.5 11 0.5H5.5C5.22 0.5 5 0.72 5 1V14C5 14.28 5.22 14.5 5.5 14.5H15.5C15.78 14.5 16 14.28 16 14V5.5C16 5.37 15.95 5.24 15.85 5.15ZM11.5 2.21L14.29 5H11.5V2.21ZM6 13.5V1.5H10.5V5.5C10.5 5.78 10.72 6 11 6H15V13.5H6Z" fill="#1652F0"/>
<path d="M12 16.5H3V4.5H4V3.5H2.5C2.22 3.5 2 3.72 2 4V17C2 17.28 2.22 17.5 2.5 17.5H12.5C12.78 17.5 13 17.28 13 17V15.5H12V16.5Z" fill="#1652F0"/>
</svg>
