<svg width="18" height="18" viewBox="0 0 18 18" fill="none" xmlns="http://www.w3.org/2000/svg">
<path d="M16.5 3H1.5C0.67 3 0 3.67 0 4.5V13.5C0 14.33 0.67 15 1.5 15H16.5C17.33 15 18 14.33 18 13.5V4.5C18 3.67 17.33 3 16.5 3ZM17 13.5C17 13.78 16.78 14 16.5 14H1.5C1.22 14 1 13.78 1 13.5V4.5C1 4.22 1.22 4 1.5 4H16.5C16.78 4 17 4.22 17 4.5V13.5Z" fill="#1652F0"/>
<path d="M11 9H2V10H11V9Z" fill="#1652F0"/>
<path d="M4 11H2V12H4V11Z" fill="#1652F0"/>
<path d="M7 11H5V12H7V11Z" fill="#1652F0"/>
<path d="M10 11H8V12H10V11Z" fill="#1652F0"/>
<path d="M13 11H11V12H13V11Z" fill="#1652F0"/>
</svg>
