<svg width="28" height="28" viewBox="0 0 28 28" fill="none" xmlns="http://www.w3.org/2000/svg">
<path d="M26 7H7V8H26V7Z" fill="#1652F0"/>
<path d="M25.5 17H23V16H25.5C25.78 16 26 15.78 26 15.5V4.5C26 4.22 25.78 4 25.5 4H7.5C7.22 4 7 4.22 7 4.5V11H6V4.5C6 3.67 6.67 3 7.5 3H25.5C26.33 3 27 3.67 27 4.5V15.5C27 16.33 26.33 17 25.5 17Z" fill="#1652F0"/>
<path d="M20.5 25H2.5C1.67 25 1 24.33 1 23.5V13.5C1 12.67 1.67 12 2.5 12H20.5C21.33 12 22 12.67 22 13.5V23.5C22 24.33 21.33 25 20.5 25ZM2.5 13C2.22 13 2 13.22 2 13.5V23.5C2 23.78 2.22 24 2.5 24H20.5C20.78 24 21 23.78 21 23.5V13.5C21 13.22 20.78 13 20.5 13H2.5Z" fill="#1652F0"/>
<path d="M15 18H4V19H15V18Z" fill="#1652F0"/>
<path d="M12 21.25H4V22.25H12V21.25Z" fill="#1652F0"/>
</svg>
