<svg width="28" height="28" viewBox="0 0 28 28" fill="none" xmlns="http://www.w3.org/2000/svg">
<path d="M14 2.05664C7.4 2.05664 2 7.45664 2 14.0566C2 20.6566 7.4 26.0566 14 26.0566C20.6 26.0566 26 20.6566 26 14.0566C26 7.45664 20.6 2.05664 14 2.05664ZM14 25.0566C7.9 25.0566 3 20.1566 3 14.0566C3 7.95664 7.9 3.05664 14 3.05664C20.1 3.05664 25 7.95664 25 14.0566C25 20.1566 20.1 25.0566 14 25.0566Z" fill="#1652F0"/>
<path d="M19 19.0566H9V20.0566H19V19.0566Z" fill="#1652F0"/>
<path d="M14.6 16.25L14.6 7.95L13.6 7.95L13.6 16.25L11.5 14.15L10.8 14.85L13.8 17.85C14 18.05 14.3 18.05 14.5 17.85L17.5 14.85L16.8 14.15L14.6 16.25Z" fill="#1652F0"/>
</svg>
