<svg width="28" height="28" viewBox="0 0 28 28" fill="none" xmlns="http://www.w3.org/2000/svg">
<path d="M15 8H7V9H15V8Z" fill="#1652F0"/>
<path d="M21 12H7V13H21V12Z" fill="#1652F0"/>
<path d="M21 16H7V17H21V16Z" fill="#1652F0"/>
<path d="M20 20H8V21H20V20Z" fill="#1652F0"/>
<path d="M23 10V26H5V3H17V8.5C17 8.78 17.22 9 17.5 9H23.5C23.7 9 23.88 8.88 23.96 8.69C24.04 8.5 23.99 8.29 23.85 8.15L17.85 2.15C17.76 2.05 17.63 2 17.5 2H4.5C4.22 2 4 2.22 4 2.5V26.5C4 26.78 4.22 27 4.5 27H23.5C23.78 27 24 26.78 24 26.5V10H23ZM18 3.71L22.29 8H18V3.71Z" fill="#1652F0"/>
</svg>
