<svg width="28" height="28" viewBox="0 0 28 28" fill="none" xmlns="http://www.w3.org/2000/svg">
<path d="M13 2C6.38 2 1 7.38 1 14C1 20.62 6.38 26 13 26C19.62 26 25 20.62 25 14C25 7.38 19.62 2 13 2ZM13 25C6.93 25 2 20.07 2 14C2 7.93 6.93 3 13 3C19.07 3 24 7.93 24 14C24 20.07 19.07 25 13 25Z" fill="#1652F0"/>
<path d="M14.25 13.5H13.5V10H16V9H13.5V7H12.5V9H11.75C10.23 9 9 10.23 9 11.75C9 13.27 10.23 14.5 11.75 14.5H12.5V18H10V19H12.5V21H13.5V19H14.25C15.77 19 17 17.77 17 16.25C17 14.73 15.77 13.5 14.25 13.5ZM11.75 13.5C10.79 13.5 10 12.71 10 11.75C10 10.79 10.79 10 11.75 10H12.5V13.5H11.75ZM14.25 18H13.5V14.5H14.25C15.21 14.5 16 15.29 16 16.25C16 17.21 15.21 18 14.25 18Z" fill="#1652F0"/>
</svg>
