<svg width="18" height="19" viewBox="0 0 18 19" fill="none" xmlns="http://www.w3.org/2000/svg">
<path d="M17.5485 4.09957L14.8985 1.43957C14.3085 0.84957 13.3385 0.84957 12.7385 1.43957L1.1685 13.0196C1.0985 13.0896 1.0485 13.1796 1.0285 13.2796L0.0085046 18.3996C-0.0214954 18.5596 0.0285046 18.7296 0.148505 18.8496C0.238505 18.9496 0.368505 18.9996 0.498505 18.9996C0.528505 18.9996 0.568505 18.9996 0.598505 18.9896L5.7185 17.9696C5.8185 17.9496 5.9085 17.8996 5.9785 17.8296L17.5485 6.24957C18.1485 5.65957 18.1485 4.68957 17.5485 4.09957ZM2.2285 13.3696L10.7485 4.84957L14.1385 8.23957L5.6185 16.7596L2.2285 13.3696ZM1.8285 14.3896L4.6085 17.1696L1.1385 17.8596L1.8285 14.3896ZM16.8485 5.54957L14.8485 7.54957L11.4585 4.15957L13.4585 2.15957C13.6685 1.95957 13.9985 1.95957 14.1985 2.15957L16.8485 4.80957C17.0485 5.00957 17.0485 5.33957 16.8485 5.54957Z" fill="#1652F0"/>
</svg>
