<svg width="28" height="28" viewBox="0 0 28 28" fill="none" xmlns="http://www.w3.org/2000/svg">
<path d="M25.81 12.14L25.82 12.12L23 9.66V2.5C23 2.22 22.78 2 22.5 2H5.5C5.22 2 5 2.22 5 2.5V9.66L2.17 12.12L2.18 12.14C2.08 12.23 2 12.35 2 12.5V25.5C2 25.78 2.22 26 2.5 26H25.5C25.78 26 26 25.78 26 25.5V12.5C26 12.35 25.92 12.23 25.81 12.14ZM5 10.99V12.41L6 13.32V3H22V13.33L23 12.42V10.99L24.75 12.51L14 22.32L3.25 12.51L5 10.99ZM25 25H3V13.63L13.66 23.37C13.85 23.54 14.14 23.54 14.33 23.37L25 13.63V25Z" fill="#1652F0"/>
<path d="M20 6H8V7H20V6Z" fill="#1652F0"/>
<path d="M20 9H8V10H20V9Z" fill="#1652F0"/>
<path d="M20 12H8V13H20V12Z" fill="#1652F0"/>
<path d="M18 15H10V16H18V15Z" fill="#1652F0"/>
</svg>
