<svg width="28" height="28" viewBox="0 0 28 28" fill="none" xmlns="http://www.w3.org/2000/svg">
<path d="M28 5.5C28 5.44 27.99 5.39 27.97 5.34C27.97 5.33 27.97 5.33 27.97 5.32C27.94 5.24 27.88 5.17 27.81 5.12C27.79 5.11 27.78 5.1 27.76 5.09C27.68 5.03 27.59 5 27.5 5H0.5C0.41 5 0.32 5.03 0.25 5.08C0.23 5.09 0.22 5.1 0.2 5.11C0.13 5.16 0.07 5.23 0.04 5.31C0.04 5.32 0.04 5.32 0.04 5.33C0.01 5.39 0 5.44 0 5.5V22.5C0 22.56 0.01 22.61 0.03 22.66C0.03 22.67 0.03 22.67 0.03 22.68C0.06 22.76 0.12 22.83 0.19 22.88C0.21 22.89 0.22 22.9 0.24 22.91C0.32 22.97 0.41 23 0.5 23H27.5C27.59 23 27.68 22.97 27.75 22.92C27.77 22.91 27.78 22.9 27.8 22.89C27.87 22.84 27.93 22.77 27.96 22.69C27.96 22.68 27.96 22.68 27.96 22.67C27.98 22.62 27.99 22.57 27.99 22.51V5.5H28ZM26.22 6L14 17.32L1.78 6H26.22ZM1.78 22L8.95 15.36L8.21 14.68L1 21.36V6.64L13.66 18.36C13.76 18.45 13.88 18.49 14 18.49C14.12 18.49 14.24 18.45 14.34 18.36L27 6.64V21.35L19.79 14.68L19.05 15.36L26.22 22H1.78Z" fill="#1652F0"/>
</svg>
