<svg width="28" height="28" viewBox="0 0 28 28" fill="none" xmlns="http://www.w3.org/2000/svg">
<path d="M14 19C15.96 19 17.5 16.8 17.5 14C17.5 11.2 15.96 9 14 9C12.04 9 10.5 11.2 10.5 14C10.5 16.8 12.04 19 14 19ZM14 10C15.36 10 16.5 11.83 16.5 14C16.5 16.17 15.36 18 14 18C12.64 18 11.5 16.17 11.5 14C11.5 11.83 12.64 10 14 10Z" fill="#1652F0"/>
<path d="M27.5 6H0.5C0.22 6 0 6.22 0 6.5V21.5C0 21.78 0.22 22 0.5 22H27.5C27.78 22 28 21.78 28 21.5V6.5C28 6.22 27.78 6 27.5 6ZM1 11.21L5.21 7H22.8L27 11.21V16.8L22.79 21H5.21L1 16.79V11.21ZM27 9.79L24.21 7H27V9.79ZM3.79 7L1 9.79V7H3.79ZM1 18.21L3.79 21H1V18.21ZM24.21 21L27 18.21V21H24.21Z" fill="#1652F0"/>
</svg>
