<svg width="18" height="18" viewBox="0 0 18 18" fill="none" xmlns="http://www.w3.org/2000/svg">
<path d="M9 1C4.59 1 1 4.59 1 9C1 13.41 4.59 17 9 17C13.41 17 17 13.41 17 9C17 4.59 13.41 1 9 1ZM9 16C5.14 16 2 12.86 2 9C2 5.14 5.14 2 9 2C12.86 2 16 5.14 16 9C16 12.86 12.86 16 9 16Z" fill="#1652F0"/>
<path d="M10 8.5H9.5V6.5H11V5.5H9.5V4.5H8.5V5.5H8C6.9 5.5 6 6.4 6 7.5C6 8.6 6.9 9.5 8 9.5H8.5V11.5H7V12.5H8.5V13.5H9.5V12.5H10C11.1 12.5 12 11.6 12 10.5C12 9.4 11.1 8.5 10 8.5ZM8 8.5C7.45 8.5 7 8.05 7 7.5C7 6.95 7.45 6.5 8 6.5H8.5V8.5H8ZM10 11.5H9.5V9.5H10C10.55 9.5 11 9.95 11 10.5C11 11.05 10.55 11.5 10 11.5Z" fill="#1652F0"/>
</svg>
