<svg width="28" height="28" viewBox="0 0 28 28" fill="none" xmlns="http://www.w3.org/2000/svg">
<path d="M21.5 8H16.5V9H21.5C22.33 9 23 9.67 23 10.5V25.5C23 26.33 22.33 27 21.5 27H6.5C5.67 27 5 26.33 5 25.5V10.5C5 9.67 5.67 9 6.5 9H11.5V8H6.5C5.12 8 4 9.12 4 10.5V25.5C4 26.88 5.12 28 6.5 28H21.5C22.88 28 24 26.88 24 25.5V10.5C24 9.12 22.88 8 21.5 8Z" fill="#1652F0"/>
<path d="M13.5 1.71V18H14.5V1.71L17.65 4.86L18.36 4.15L14.36 0.15C14.16 -0.05 13.85 -0.05 13.65 0.15L9.65002 4.15L10.36 4.86L13.5 1.71Z" fill="#1652F0"/>
</svg>
