<svg width="18" height="18" viewBox="0 0 18 18" fill="none" xmlns="http://www.w3.org/2000/svg">
<path d="M17.81 6.9C17.71 6.59 17.42 6.38 17.1 6.38H11.46L9.70995 1.02C9.60995 0.71 9.32995 0.5 8.99995 0.5C8.66995 0.5 8.38995 0.71 8.28995 1.02L6.53995 6.38H0.909954C0.579954 6.38 0.299954 6.59 0.199954 6.9C0.0899538 7.21 0.199954 7.54 0.469954 7.74L5.02995 11.05L3.28995 16.41C3.18995 16.72 3.29995 17.06 3.55995 17.25C3.81995 17.44 4.17995 17.44 4.43995 17.25L8.99995 13.94L13.56 17.25C13.69 17.35 13.85 17.39 14 17.39C14.15 17.39 14.31 17.34 14.44 17.25C14.7 17.06 14.81 16.72 14.71 16.41L12.97 11.05L17.53 7.74C17.8 7.54 17.91 7.21 17.81 6.9Z" fill="#1652F0"/>
</svg>
