<svg width="18" height="18" viewBox="0 0 18 18" fill="none" xmlns="http://www.w3.org/2000/svg">
<path d="M9 1C4.59 1 1 4.59 1 9C1 13.41 4.59 17 9 17C13.41 17 17 13.41 17 9C17 4.59 13.41 1 9 1ZM9 16C5.14 16 2 12.86 2 9C2 5.14 5.14 2 9 2C12.86 2 16 5.14 16 9C16 12.86 12.86 16 9 16Z" fill="#1652F0"/>
<path d="M14.5 8.5H10.93C10.71 7.64 9.93 7 9 7C7.9 7 7 7.9 7 9C7 10.1 7.9 11 9 11C9.93 11 10.71 10.36 10.93 9.5H14.5C14.78 9.5 15 9.28 15 9C15 8.72 14.78 8.5 14.5 8.5ZM9 10C8.45 10 8 9.55 8 9C8 8.45 8.45 8 9 8C9.55 8 10 8.45 10 9C10 9.55 9.55 10 9 10Z" fill="#1652F0"/>
<path d="M14.0099 6.67987C14.2499 6.53987 14.3299 6.23987 14.1999 5.99987C14.0699 5.75987 13.7599 5.67987 13.5199 5.81987C13.2799 5.95987 13.1999 6.25987 13.3399 6.49987C13.4799 6.73987 13.7699 6.81987 14.0099 6.67987Z" fill="#1652F0"/>
<path d="M11.5001 4.67033C11.7401 4.81033 12.0401 4.73033 12.1801 4.49033C12.3201 4.25033 12.2401 3.94033 12.0001 3.80033C11.7601 3.66033 11.4601 3.74033 11.3201 3.98033C11.1801 4.23033 11.2601 4.53033 11.5001 4.67033Z" fill="#1652F0"/>
<path d="M9 4C9.27614 4 9.5 3.77614 9.5 3.5C9.5 3.22386 9.27614 3 9 3C8.72386 3 8.5 3.22386 8.5 3.5C8.5 3.77614 8.72386 4 9 4Z" fill="#1652F0"/>
<path d="M6.00011 3.80021C5.76011 3.94021 5.68011 4.25021 5.82011 4.49021C5.96011 4.73021 6.26011 4.81021 6.50011 4.67021C6.74011 4.53021 6.82011 4.23021 6.68011 3.99021C6.54011 3.75021 6.24011 3.67021 6.00011 3.80021Z" fill="#1652F0"/>
<path d="M4.48997 5.81987C4.24997 5.67987 3.93997 5.75987 3.79997 5.99987C3.66997 6.23987 3.74997 6.53987 3.98997 6.67987C4.22997 6.81987 4.52997 6.73987 4.66997 6.49987C4.80997 6.25987 4.72997 5.95987 4.48997 5.81987Z" fill="#1652F0"/>
<path d="M3.5 9.5C3.77614 9.5 4 9.27614 4 9C4 8.72386 3.77614 8.5 3.5 8.5C3.22386 8.5 3 8.72386 3 9C3 9.27614 3.22386 9.5 3.5 9.5Z" fill="#1652F0"/>
<path d="M3.98997 11.3199C3.74997 11.4599 3.66997 11.7599 3.79997 11.9999C3.93997 12.2399 4.23997 12.3199 4.47997 12.1799C4.71997 12.0399 4.79997 11.7399 4.65997 11.4999C4.52997 11.2599 4.22997 11.1799 3.98997 11.3199Z" fill="#1652F0"/>
<path d="M14.0101 11.3199C13.7701 11.1799 13.4701 11.2599 13.3301 11.4999C13.1901 11.7399 13.2701 12.0399 13.5101 12.1799C13.7501 12.3199 14.0501 12.2399 14.1901 11.9999C14.3301 11.7599 14.2501 11.4599 14.0101 11.3199Z" fill="#1652F0"/>
</svg>
