<svg width="28" height="29" viewBox="0 0 28 29" fill="none" xmlns="http://www.w3.org/2000/svg">
<path d="M14 2.05762C7.38 2.05762 2 7.43762 2 14.0576C2 20.6776 7.38 26.0576 14 26.0576C20.62 26.0576 26 20.6776 26 14.0576C26 7.43762 20.62 2.05762 14 2.05762ZM14 25.0576C7.93 25.0576 3 20.1276 3 14.0576C3 7.98762 7.93 3.05762 14 3.05762C20.07 3.05762 25 7.98762 25 14.0576C25 20.1276 20.07 25.0576 14 25.0576Z" fill="#1652F0"/>
<path d="M17.5 9.05762H10.5V8.05762H9.5V9.55762V13.5576V15.0576H10.5V14.0576H13.5V21.0576H14.5V14.0576H17.5V15.0576H18.5V13.5576V9.55762V8.05762H17.5V9.05762ZM10.5 13.0576V10.0576H17.5V13.0576H10.5Z" fill="#1652F0"/>
</svg>
