<svg width="18" height="18" viewBox="0 0 18 18" fill="none" xmlns="http://www.w3.org/2000/svg">
<g clip-path="url(#clip0)">
<path d="M9.00011 11.0004C8.99011 11.0004 8.97011 11.0004 8.96011 11.0004L8.11011 11.8504C8.39011 11.9404 8.69011 12.0004 9.00011 12.0004C10.6501 12.0004 12.0001 10.6504 12.0001 9.00035C12.0001 8.69035 11.9401 8.39035 11.8501 8.11035L11.0001 8.96035C11.0001 8.97035 11.0001 8.99035 11.0001 9.00035C11.0001 10.1004 10.1001 11.0004 9.00011 11.0004Z" fill="#1652F0"/>
<path d="M17.9401 8.77008C17.1701 7.28008 16.1001 6.04008 14.8701 5.08008L14.1601 5.79008C15.2601 6.62008 16.2201 7.69008 16.9301 9.00008C15.2401 12.0901 12.2201 14.0001 9.00013 14.0001C8.11013 14.0001 7.23013 13.8401 6.40013 13.5601L5.63013 14.3301C6.70013 14.7501 7.83013 15.0001 9.00013 15.0001C12.6801 15.0001 16.1001 12.7901 17.9401 9.23008C18.0201 9.09008 18.0201 8.91008 17.9401 8.77008Z" fill="#1652F0"/>
<path d="M15.1501 2.15039L13.2401 4.06039C11.9201 3.38039 10.4901 3.00039 9.00007 3.00039C5.32007 3.00039 1.90007 5.21039 0.0600684 8.77039C-0.00993164 8.91039 -0.00993164 9.09039 0.0600684 9.23039C0.980068 11.0104 2.31007 12.4404 3.86007 13.4304L2.15007 15.1404L2.86007 15.8504L15.8601 2.85039L15.1501 2.15039ZM1.07007 9.00039C2.76007 5.91039 5.78007 4.00039 9.00007 4.00039C10.2201 4.00039 11.4001 4.29039 12.4901 4.80039L10.7201 6.57039C10.2301 6.22039 9.65007 6.00039 9.00007 6.00039C7.35007 6.00039 6.00007 7.35039 6.00007 9.00039C6.00007 9.65039 6.22007 10.2304 6.57007 10.7204L4.59007 12.7004C3.17007 11.8404 1.94007 10.5904 1.07007 9.00039ZM7.28007 10.0104C7.11007 9.71039 7.00007 9.37039 7.00007 9.00039C7.00007 7.90039 7.90007 7.00039 9.00007 7.00039C9.37007 7.00039 9.71007 7.11039 10.0101 7.28039L7.28007 10.0104Z" fill="#1652F0"/>
</g>
<defs>
<clipPath id="clip0">
<rect width="18" height="18" fill="white"/>
</clipPath>
</defs>
</svg>
