<svg width="18" height="18" viewBox="0 0 18 18" fill="none" xmlns="http://www.w3.org/2000/svg">
<g clip-path="url(#clip0)">
<path d="M9.81 2C6.23 2 3.27 4.71 2.86 8.19L1.76 6.88L1 7.52L2.93 9.82C3.03 9.94 3.17 10 3.31 10C3.42 10 3.54 9.96 3.63 9.88L5.93 7.95L5.29 7.19L3.84 8.4C4.14 5.37 6.7 3 9.81 3C13.12 3 15.81 5.69 15.81 9C15.81 12.31 13.12 15 9.81 15C7.6 15 5.58 13.79 4.53 11.85L3.65 12.33C4.88 14.59 7.24 16 9.81 16C13.67 16 16.81 12.86 16.81 9C16.81 5.14 13.67 2 9.81 2Z" fill="#1652F0"/>
<path d="M9.31006 4.5V9C9.31006 9.13 9.36006 9.26 9.46006 9.35L11.8101 11.7L12.5201 11L10.3101 8.79V4.5H9.31006Z" fill="#1652F0"/>
</g>
<defs>
<clipPath id="clip0">
<rect x="1" y="2" width="15.81" height="14" fill="white"/>
</clipPath>
</defs>
</svg>
