<svg width="28" height="28" viewBox="0 0 28 28" fill="none" xmlns="http://www.w3.org/2000/svg">
<path d="M25.5 7H22V3.5C22 3.22 21.78 3 21.5 3H4.5C3.12 3 2 4.12 2 5.5V22.5C2 23.88 3.12 25 4.5 25H25.5C25.78 25 26 24.78 26 24.5V7.5C26 7.22 25.78 7 25.5 7ZM4.5 4H21V7H4.5C3.67 7 3 6.33 3 5.5C3 4.67 3.67 4 4.5 4ZM25 24H4.5C3.67 24 3 23.33 3 22.5V7.5C3.02 7.51 3.04 7.53 3.06 7.54C3.1 7.57 3.15 7.59 3.19 7.62C3.27 7.67 3.36 7.72 3.45 7.76C3.5 7.78 3.55 7.81 3.6 7.83C3.7 7.87 3.8 7.9 3.9 7.92C3.95 7.93 3.99 7.95 4.04 7.95C4.19 7.98 4.34 8 4.5 8H21.5H25V24Z" fill="#1652F0"/>
<path d="M19.0001 14.0004H9.21013L11.3601 11.8504L10.6501 11.1504L7.65013 14.1504C7.51013 14.2904 7.46013 14.5104 7.54013 14.6904C7.62013 14.8704 7.80013 15.0004 8.00013 15.0004H19.0001V14.0004Z" fill="#1652F0"/>
<path d="M20 17H9V18H18.79L16.64 20.15L17.35 20.86L20.35 17.86C20.49 17.72 20.54 17.5 20.46 17.32C20.38 17.14 20.2 17 20 17Z" fill="#1652F0"/>
</svg>
