<svg width="28" height="28" viewBox="0 0 28 28" fill="none" xmlns="http://www.w3.org/2000/svg">
<path d="M14 2C7.38 2 2 7.38 2 14C2 20.62 7.38 26 14 26C20.62 26 26 20.62 26 14C26 7.38 20.62 2 14 2ZM24.97 13.5H20.48C20.39 9.12 19.09 5.41 17.15 3.47C21.53 4.78 24.76 8.75 24.97 13.5ZM13.5 3.05V13.5H8.51C8.64 8.09 10.83 3.56 13.5 3.05ZM13.5 14.5V24.95C10.83 24.44 8.64 19.91 8.51 14.5H13.5ZM14.5 24.95V14.5H19.49C19.36 19.91 17.17 24.44 14.5 24.95ZM14.5 13.5V3.05C17.17 3.56 19.36 8.09 19.49 13.5H14.5ZM10.84 3.47C8.91 5.41 7.61 9.12 7.51 13.5H3.03C3.24 8.75 6.47 4.78 10.84 3.47ZM3.03 14.5H7.52C7.61 18.88 8.91 22.59 10.85 24.53C6.47 23.22 3.24 19.25 3.03 14.5ZM17.16 24.53C19.09 22.58 20.39 18.88 20.49 14.5H24.98C24.76 19.25 21.53 23.22 17.16 24.53Z" fill="#1652F0"/>
</svg>
