<svg width="28" height="28" viewBox="0 0 28 28" fill="none" xmlns="http://www.w3.org/2000/svg">
<path d="M26.5 5H1.5C0.67 5 0 5.67 0 6.5V21.5C0 22.33 0.67 23 1.5 23H26.5C27.33 23 28 22.33 28 21.5V6.5C28 5.67 27.33 5 26.5 5ZM27 21.5C27 21.78 26.78 22 26.5 22H1.5C1.22 22 1 21.78 1 21.5V6.5C1 6.22 1.22 6 1.5 6H26.5C26.78 6 27 6.22 27 6.5V21.5Z" fill="#1652F0"/>
<path d="M24 17H15V18H24V17Z" fill="#1652F0"/>
<path d="M24 14H15V15H24V14Z" fill="#1652F0"/>
<path d="M24 11H15V12H24V11Z" fill="#1652F0"/>
<path d="M7.5 13C8.88 13 10 11.88 10 10.5C10 9.12 8.88 8 7.5 8C6.12 8 5 9.12 5 10.5C5 11.88 6.12 13 7.5 13ZM7.5 9C8.33 9 9 9.67 9 10.5C9 11.33 8.33 12 7.5 12C6.67 12 6 11.33 6 10.5C6 9.67 6.67 9 7.5 9Z" fill="#1652F0"/>
<path d="M7.5 14C5.02 14 3 16.02 3 18.5V19.5C3 19.78 3.22 20 3.5 20H11.5C11.78 20 12 19.78 12 19.5V18.5C12 16.02 9.98 14 7.5 14ZM11 19H4V18.5C4 16.57 5.57 15 7.5 15C9.43 15 11 16.57 11 18.5V19Z" fill="#1652F0"/>
</svg>
