<svg width="18" height="18" viewBox="0 0 18 18" fill="none" xmlns="http://www.w3.org/2000/svg">
<g clip-path="url(#clip0)">
<path d="M15.7801 2.21957C14.1501 0.58957 11.5101 0.58957 9.88011 2.21957L6.61011 5.47957L7.32011 6.18957L10.5801 2.92957C11.8201 1.68957 13.8301 1.68957 15.0601 2.92957C16.3001 4.16957 16.3001 6.17957 15.0601 7.41957L11.8001 10.6796L12.5101 11.3896L15.7701 8.12957C17.4001 6.48957 17.4001 3.84957 15.7801 2.21957Z" fill="#1652F0"/>
<path d="M7.41006 15.0694C6.17006 16.3094 4.16006 16.3094 2.93006 15.0694C1.69006 13.8294 1.69006 11.8194 2.93006 10.5794L6.19006 7.31938L5.48006 6.60938L2.22006 9.87937C0.590059 11.5094 0.590059 14.1494 2.22006 15.7794C3.03006 16.5894 4.10006 16.9994 5.17006 16.9994C6.24006 16.9994 7.31006 16.5894 8.12006 15.7794L11.3801 12.5194L10.6701 11.8094L7.41006 15.0694Z" fill="#1652F0"/>
<path d="M11.4966 5.79468L5.79028 11.501L6.49738 12.2081L12.2037 6.50178L11.4966 5.79468Z" fill="#1652F0"/>
</g>
<defs>
<clipPath id="clip0">
<rect x="1" y="1" width="16" height="16" fill="white"/>
</clipPath>
</defs>
</svg>
