<svg width="18" height="18" viewBox="0 0 18 18" fill="none" xmlns="http://www.w3.org/2000/svg">
<path d="M14.5 0.5H3.5C2.12 0.5 1 1.62 1 3V15C1 16.38 2.12 17.5 3.5 17.5H14.5C15.88 17.5 17 16.38 17 15V3C17 1.62 15.88 0.5 14.5 0.5ZM16 15C16 15.83 15.33 16.5 14.5 16.5H3.5C2.67 16.5 2 15.83 2 15V3C2 2.17 2.67 1.5 3.5 1.5H14.5C15.33 1.5 16 2.17 16 3V15Z" fill="#1652F0"/>
<path d="M13.5 4.5H4.5V5.5H13.5V4.5Z" fill="#1652F0"/>
<path d="M13.5 8.5H4.5V9.5H13.5V8.5Z" fill="#1652F0"/>
<path d="M13.5 12.5H4.5V13.5H13.5V12.5Z" fill="#1652F0"/>
</svg>
