<svg width="28" height="29" viewBox="0 0 28 29" fill="none" xmlns="http://www.w3.org/2000/svg">
<path d="M14 2.05762C7.4 2.05762 2 7.45762 2 14.0576C2 20.6576 7.4 26.0576 14 26.0576C20.6 26.0576 26 20.6576 26 14.0576C26 7.45762 20.6 2.05762 14 2.05762ZM14 25.0576C7.9 25.0576 3 20.1576 3 14.0576C3 7.95762 7.9 3.05762 14 3.05762C20.1 3.05762 25 7.95762 25 14.0576C25 20.1576 20.1 25.0576 14 25.0576Z" fill="#1652F0"/>
<path d="M19.5 13.5576H11V14.5576H19.5V13.5576Z" fill="#1652F0"/>
<path d="M19.5 9.55762H11V10.5576H19.5V9.55762Z" fill="#1652F0"/>
<path d="M19.5 17.5576H11V18.5576H19.5V17.5576Z" fill="#1652F0"/>
<path d="M10 13.2578H8.5V14.7578H10V13.2578Z" fill="#1652F0"/>
<path d="M10 9.25781H8.5V10.7578H10V9.25781Z" fill="#1652F0"/>
<path d="M10 17.2578H8.5V18.7578H10V17.2578Z" fill="#1652F0"/>
</svg>
