<svg width="28" height="29" viewBox="0 0 28 29" fill="none" xmlns="http://www.w3.org/2000/svg">
<path d="M20.5 10.44V6.46C20.5 2.9 17.58 0 14 0C10.42 0 7.5 2.9 7.5 6.46V10.43C5.36 12.27 4 14.99 4 18.02C4 23.53 8.49 28.02 14 28.02C19.51 28.02 24 23.53 24 18.02C24 14.99 22.64 12.27 20.5 10.44ZM8.5 6.46C8.5 3.45 10.97 1 14 1C17.03 1 19.5 3.45 19.5 6.46V9.67C17.92 8.63 16.03 8.01 14 8.01C11.97 8.01 10.08 8.63 8.5 9.68V6.46ZM14 27.02C9.04 27.02 5 22.98 5 18.02C5 13.06 9.04 9.02 14 9.02C18.96 9.02 23 13.06 23 18.02C23 22.98 18.96 27.02 14 27.02Z" fill="#1652F0"/>
<path d="M17.95 17.5198C17.9 17.1498 17.83 16.7998 17.69 16.4698L19.88 15.1998L19.38 14.3298L17.17 15.5998C16.95 15.3098 16.69 15.0598 16.41 14.8398L17.68 12.6298L16.81 12.1298L15.54 14.3198C15.21 14.1798 14.85 14.0998 14.49 14.0598V11.5098H13.49V14.0598C13.12 14.1098 12.77 14.1798 12.44 14.3198L11.17 12.1298L10.3 12.6298L11.57 14.8398C11.28 15.0598 11.03 15.3198 10.81 15.5998L8.6 14.3298L8.1 15.1998L10.29 16.4698C10.15 16.7998 10.07 17.1498 10.03 17.5198H7.5V18.5198H10.05C10.1 18.8898 10.17 19.2398 10.31 19.5698L8.12 20.8398L8.62 21.7098L10.83 20.4398C11.05 20.7298 11.31 20.9798 11.59 21.1998L10.32 23.3998L11.19 23.8998L12.46 21.7098C12.79 21.8498 13.15 21.9298 13.51 21.9698V24.5198H14.51V21.9698C14.88 21.9198 15.23 21.8498 15.56 21.7098L16.83 23.8998L17.7 23.3998L16.43 21.1898C16.72 20.9698 16.97 20.7098 17.19 20.4298L19.4 21.6998L19.9 20.8298L17.71 19.5598C17.85 19.2298 17.93 18.8798 17.97 18.5098H20.52V17.5098H17.95V17.5198ZM17 18.0198C17 19.6698 15.65 21.0198 14 21.0198C12.35 21.0198 11 19.6698 11 18.0198C11 16.3698 12.35 15.0198 14 15.0198C15.65 15.0198 17 16.3598 17 18.0198Z" fill="#1652F0"/>
</svg>
