<svg width="28" height="28" viewBox="0 0 28 28" fill="none" xmlns="http://www.w3.org/2000/svg">
<path d="M21.5 0H6.5C5.67 0 5 0.67 5 1.5V26.5C5 27.33 5.67 28 6.5 28H21.5C22.33 28 23 27.33 23 26.5V1.5C23 0.67 22.33 0 21.5 0ZM6.5 1H21.5C21.78 1 22 1.22 22 1.5V3H6V1.5C6 1.22 6.22 1 6.5 1ZM6 24V4H22V24H6ZM21.5 27H6.5C6.22 27 6 26.78 6 26.5V25H22V26.5C22 26.78 21.78 27 21.5 27Z" fill="#1652F0"/>
<path d="M9 9.5V12H10V10H12V9H9.5C9.22 9 9 9.22 9 9.5Z" fill="#1652F0"/>
<path d="M18.5 9H16V10H18V12H19V9.5C19 9.22 18.78 9 18.5 9Z" fill="#1652F0"/>
<path d="M10 16H9V18.5C9 18.78 9.22 19 9.5 19H12V18H10V16Z" fill="#1652F0"/>
<path d="M18 18H16V19H18.5C18.78 19 19 18.78 19 18.5V16H18V18Z" fill="#1652F0"/>
</svg>
