<svg width="18" height="18" viewBox="0 0 18 18" fill="none" xmlns="http://www.w3.org/2000/svg">
<g clip-path="url(#clip0)">
<path d="M15 5.49C14.86 5.33 14.69 5.18 14.5 5.05C14.51 4.94 14.5 4.84 14.51 4.73C14.51 4.65 14.53 4.55 14.53 4.47C14.53 4.43 14.52 4.4 14.52 4.37C14.51 4.21 14.49 4.06 14.46 3.91C14.44 3.81 14.43 3.7 14.41 3.61C14.37 3.45 14.3 3.3 14.24 3.15C14.21 3.09 14.2 3.01 14.16 2.95C14.15 2.94 14.15 2.93 14.14 2.92C14.01 2.71 13.87 2.5 13.7 2.3C12.94 1.44 11.62 1 9.76999 1H5.09999C4.52999 1 4.03999 1.41 3.94999 1.99L2.00999 14.29C1.96999 14.55 2.03999 14.81 2.20999 15.02C2.37999 15.23 2.62999 15.34 2.88999 15.34H5.17999L5.06999 16.02C5.02999 16.27 5.09999 16.52 5.25999 16.7C5.41999 16.89 5.65999 17 5.90999 17H8.33999C8.87999 17 9.32999 16.62 9.40999 16.1L9.88999 13.08L9.91999 12.91C9.92999 12.87 9.95999 12.84 9.99999 12.84H10.36C13.29 12.84 15.05 11.45 15.58 8.72C15.86 7.34 15.66 6.25 15 5.49ZM7.27999 5.33L11.51 5.34C11.92 5.34 12.3 5.37 12.64 5.42C12.73 5.43 12.83 5.45 12.92 5.47C13.01 5.49 13.09 5.51 13.18 5.54L13.3 5.58C13.33 5.59 13.36 5.61 13.39 5.62C12.86 8.12 11.26 9.34 8.50999 9.34H7.14999L7.76999 5.4L7.27999 5.33ZM3.01999 14.34L4.93999 2.14C4.94999 2.06 5.01999 2 5.09999 2H9.75999C11.31 2 12.38 2.32 12.94 2.96C13.06 3.1 13.15 3.24 13.24 3.38C13.27 3.42 13.28 3.47 13.31 3.52C13.36 3.63 13.4 3.74 13.43 3.85C13.44 3.9 13.46 3.96 13.47 4.01C13.5 4.14 13.51 4.29 13.51 4.44C13.51 4.48 13.52 4.51 13.52 4.56C13.52 4.57 13.52 4.59 13.52 4.6L13.45 4.58C13.35 4.55 13.24 4.52 13.13 4.5C13.02 4.47 12.91 4.45 12.79 4.44C12.4 4.38 11.97 4.35 11.5 4.35H7.84999C7.68999 4.35 7.52999 4.39 7.37999 4.46C7.05999 4.59 6.83999 4.9 6.77999 5.25L6.00999 10.17L5.34999 14.33H3.01999V14.34ZM14.61 8.52C14.18 10.75 12.79 11.83 10.37 11.83H10.01C9.46999 11.83 9.01999 12.21 8.93999 12.73L8.44999 15.78L8.41999 15.92C8.42999 15.97 8.38999 16 8.34999 16H6.09999L6.26999 14.92C6.26999 14.92 6.26999 14.92 6.26999 14.91L6.96999 10.47C6.97999 10.39 7.04999 10.33 7.12999 10.33H8.49999C11.62 10.33 13.54 8.92 14.26 6.18C14.7 6.71 14.82 7.47 14.61 8.52Z" fill="#1652F0"/>
</g>
<defs>
<clipPath id="clip0">
<rect x="2" y="1" width="13.71" height="16" fill="white"/>
</clipPath>
</defs>
</svg>
