<svg width="28" height="28" viewBox="0 0 28 28" fill="none" xmlns="http://www.w3.org/2000/svg">
<path d="M23.5 11H21V8C21 4.14 17.86 1 14 1C10.14 1 7 4.14 7 8V11H4.5C4.22 11 4 11.22 4 11.5V26.5C4 26.78 4.22 27 4.5 27H23.5C23.78 27 24 26.78 24 26.5V11.5C24 11.22 23.78 11 23.5 11ZM8 8C8 4.69 10.69 2 14 2C17.31 2 20 4.69 20 8V11H8V8ZM23 26H5V12H23V26Z" fill="#1652F0"/>
<path d="M13.5 19.93V23H14.5V19.93C15.36 19.71 16 18.93 16 18C16 16.9 15.1 16 14 16C12.9 16 12 16.9 12 18C12 18.93 12.64 19.71 13.5 19.93ZM14 17C14.55 17 15 17.45 15 18C15 18.55 14.55 19 14 19C13.45 19 13 18.55 13 18C13 17.45 13.45 17 14 17Z" fill="#1652F0"/>
</svg>
