<svg width="18" height="18" viewBox="0 0 18 18" fill="none" xmlns="http://www.w3.org/2000/svg">
<g clip-path="url(#clip0)">
<path d="M9 1.11328C4.59 1.11328 1 4.70328 1 9.11328C1 13.5233 4.59 17.1133 9 17.1133C13.41 17.1133 17 13.5233 17 9.11328C17 4.70328 13.41 1.11328 9 1.11328ZM9 16.1133C5.14 16.1133 2 12.9733 2 9.11328C2 5.25328 5.14 2.11328 9 2.11328C12.86 2.11328 16 5.25328 16 9.11328C16 12.9733 12.86 16.1133 9 16.1133Z" fill="#1652F0"/>
<path d="M12.99 8.67306L6.99 5.42306C6.83 5.34306 6.65 5.34306 6.49 5.43306C6.34 5.52306 6.25 5.68306 6.25 5.86306V12.3631C6.25 12.5431 6.34 12.7031 6.49 12.7931C6.57 12.8431 6.66 12.8631 6.75 12.8631C6.83 12.8631 6.91 12.8431 6.99 12.8031L12.99 9.55306C13.15 9.46306 13.25 9.29306 13.25 9.11306C13.25 8.93306 13.15 8.76306 12.99 8.67306ZM7.25 11.5231V6.70306L11.7 9.11306L7.25 11.5231Z" fill="#1652F0"/>
</g>
<defs>
<clipPath id="clip0">
<rect x="1" y="1.11328" width="16" height="16" fill="white"/>
</clipPath>
</defs>
</svg>
