<svg width="28" height="28" viewBox="0 0 28 28" fill="none" xmlns="http://www.w3.org/2000/svg">
<path fill-rule="evenodd" clip-rule="evenodd" d="M14 3C7.92487 3 3 7.92487 3 14C3 20.0751 7.92487 25 14 25C20.0751 25 25 20.0751 25 14C25 7.92487 20.0751 3 14 3ZM2 14C2 7.37258 7.37258 2 14 2C20.6274 2 26 7.37258 26 14C26 20.6274 20.6274 26 14 26C7.37258 26 2 20.6274 2 14Z" fill="#1652F0"/>
<path fill-rule="evenodd" clip-rule="evenodd" d="M15.5 14.7929L20.1465 10.1465L20.8536 10.8536L15.8536 15.8536C15.6583 16.0489 15.3417 16.0489 15.1465 15.8536L12.5 13.2071L7.85359 17.8536L7.14648 17.1465L12.1465 12.1465C12.3417 11.9512 12.6583 11.9512 12.8536 12.1465L15.5 14.7929Z" fill="#1652F0"/>
</svg>
