<svg width="28" height="28" viewBox="0 0 28 28" fill="none" xmlns="http://www.w3.org/2000/svg">
<path fill-rule="evenodd" clip-rule="evenodd" d="M14 3C7.92487 3 3 7.92487 3 14C3 20.0751 7.92487 25 14 25C20.0751 25 25 20.0751 25 14C25 7.92487 20.0751 3 14 3ZM2 14C2 7.37258 7.37258 2 14 2C20.6274 2 26 7.37258 26 14C26 20.6274 20.6274 26 14 26C7.37258 26 2 20.6274 2 14Z" fill="#1652F0"/>
<path fill-rule="evenodd" clip-rule="evenodd" d="M14.9646 11.5013C15.1091 11.491 15.2511 11.544 15.3536 11.6464L17.2071 13.5H22V14.5H17C16.8674 14.5 16.7402 14.4473 16.6464 14.3536L15.0541 12.7612L12.4 16.3C12.313 16.416 12.18 16.4885 12.0354 16.4987C11.8909 16.509 11.7489 16.456 11.6464 16.3536L9.79289 14.5H6V13.5H10C10.1326 13.5 10.2598 13.5527 10.3536 13.6464L11.9459 15.2388L14.6 11.7C14.687 11.584 14.82 11.5115 14.9646 11.5013Z" fill="#1652F0"/>
</svg>
