<svg width="28" height="28" viewBox="0 0 28 28" fill="none" xmlns="http://www.w3.org/2000/svg">
<path fill-rule="evenodd" clip-rule="evenodd" d="M14 3C7.92487 3 3 7.92487 3 14C3 20.0751 7.92487 25 14 25C20.0751 25 25 20.0751 25 14C25 7.92487 20.0751 3 14 3ZM2 14C2 7.37258 7.37258 2 14 2C20.6274 2 26 7.37258 26 14C26 20.6274 20.6274 26 14 26C7.37258 26 2 20.6274 2 14Z" fill="#1652F0"/>
<path fill-rule="evenodd" clip-rule="evenodd" d="M12.1465 15.8536L7.14648 10.8536L7.85359 10.1465L12.5 14.7929L15.1465 12.1465C15.3417 11.9512 15.6583 11.9512 15.8536 12.1465L20.8536 17.1465L20.1465 17.8536L15.5 13.2071L12.8536 15.8536C12.6583 16.0489 12.3417 16.0489 12.1465 15.8536Z" fill="#1652F0"/>
</svg>
