<svg width="28" height="28" viewBox="0 0 28 28" fill="none" xmlns="http://www.w3.org/2000/svg">
<path d="M2.5 13H12.5C12.78 13 13 12.78 13 12.5V2.5C13 2.22 12.78 2 12.5 2H2.5C2.22 2 2 2.22 2 2.5V12.5C2 12.78 2.22 13 2.5 13ZM3 3H12V12H3V3Z" fill="#1652F0"/>
<path d="M5 5.5V9.5C5 9.78 5.22 10 5.5 10H9.5V9H6V6H9.5V5H5.5C5.22 5 5 5.22 5 5.5Z" fill="#1652F0"/>
<path d="M5.5 22V23H9.5C9.78 23 10 22.78 10 22.5V18.5C10 18.22 9.78 18 9.5 18H5.5V19H9V22H5.5Z" fill="#1652F0"/>
<path d="M19 6H22V9.5H23V5.5C23 5.22 22.78 5 22.5 5H18.5C18.22 5 18 5.22 18 5.5V9.5H19V6Z" fill="#1652F0"/>
<path d="M25.5 2H15.5C15.22 2 15 2.22 15 2.5V12.5C15 12.78 15.22 13 15.5 13H25.5C25.78 13 26 12.78 26 12.5V2.5C26 2.22 25.78 2 25.5 2ZM25 12H16V3H25V12Z" fill="#1652F0"/>
<path d="M16 22.5V15.5C16 15.22 15.78 15 15.5 15H2.5C2.22 15 2 15.22 2 15.5V25.5C2 25.78 2.22 26 2.5 26H12.5C12.78 26 13 25.78 13 25.5V20.5H12V25H3V16H15V22.5V25.5C15 25.78 15.22 26 15.5 26H25.5V25H16V22.5Z" fill="#1652F0"/>
<path d="M25.5 15H18.5C18.22 15 18 15.22 18 15.5V19.5H19V16H25V22H20.5V23H25.5C25.78 23 26 22.78 26 22.5V15.5C26 15.22 25.78 15 25.5 15Z" fill="#1652F0"/>
</svg>
