<svg width="28" height="28" viewBox="0 0 28 28" fill="none" xmlns="http://www.w3.org/2000/svg">
<path d="M14 26C7.38 26 2 20.62 2 14C2 7.38 7.38 2 14 2C20.62 2 26 7.38 26 14C26 20.62 20.62 26 14 26ZM14 3C7.93 3 3 7.93 3 14C3 20.07 7.93 25 14 25C20.07 25 25 20.07 25 14C25 7.93 20.07 3 14 3Z" fill="#1652F0"/>
<path d="M14.5 17.9997H13.5V17.2297C13.5 15.9597 14.23 14.7997 15.45 14.1297C16.64 13.4797 17.23 12.1297 16.92 10.7897C16.67 9.7197 15.79 8.8297 14.71 8.5897C13.79 8.3797 12.85 8.5897 12.13 9.1597C11.41 9.7297 11 10.5797 11 11.4997V11.9997H10V11.4997C10 10.2797 10.55 9.1397 11.51 8.3697C12.47 7.5997 13.72 7.3297 14.94 7.6097C16.4 7.9397 17.56 9.0997 17.9 10.5697C18.31 12.3497 17.52 14.1397 15.93 15.0097C15.04 15.4997 14.5 16.3397 14.5 17.2397V17.9997Z" fill="#1652F0"/>
<path d="M14.5 19H13.5V20.5H14.5V19Z" fill="#1652F0"/>
</svg>
