<svg width="18" height="18" viewBox="0 0 18 18" fill="none" xmlns="http://www.w3.org/2000/svg">
<path d="M9 1C4.59 1 1 4.59 1 9C1 13.41 4.59 17 9 17C13.41 17 17 13.41 17 9C17 4.59 13.41 1 9 1ZM9 16C5.14 16 2 12.86 2 9C2 5.14 5.14 2 9 2C12.86 2 16 5.14 16 9C16 12.86 12.86 16 9 16Z" fill="#1652F0"/>
<path d="M9.4999 11.42V5.5H8.4999V11.42L6.3499 9.28L5.6499 9.98L8.6499 12.98C8.7499 13.08 8.8799 13.13 8.9999 13.13C9.1199 13.13 9.2599 13.08 9.3499 12.98L12.3499 9.98L11.6399 9.27L9.4999 11.42Z" fill="#1652F0"/>
</svg>
