<svg width="28" height="28" viewBox="0 0 28 28" fill="none" xmlns="http://www.w3.org/2000/svg">
<path d="M14 2C7.38 2 2 7.38 2 14C2 20.62 7.38 26 14 26C20.62 26 26 20.62 26 14C26 7.38 20.62 2 14 2ZM14 25C7.93 25 3 20.07 3 14C3 7.93 7.93 3 14 3C20.07 3 25 7.93 25 14C25 20.07 20.07 25 14 25Z" fill="#1652F0"/>
<path d="M14 7.5C10.42 7.5 7.5 10.42 7.5 14H8.5C8.5 10.97 10.97 8.5 14 8.5C17.03 8.5 19.5 10.97 19.5 14C19.5 17.03 17.03 19.5 14 19.5C12.13 19.5 10.4 18.54 9.39 17H11.25V16H8.25C7.97 16 7.75 16.22 7.75 16.5V19.5H8.75V17.81C9.96 19.47 11.9 20.5 14 20.5C17.58 20.5 20.5 17.58 20.5 14C20.5 10.42 17.58 7.5 14 7.5Z" fill="#1652F0"/>
</svg>
