<svg width="28" height="28" viewBox="0 0 28 28" fill="none" xmlns="http://www.w3.org/2000/svg">
<path d="M26.5 5H1.5C0.67 5 0 5.67 0 6.5V21.5C0 22.33 0.67 23 1.5 23H26.5C27.33 23 28 22.33 28 21.5V6.5C28 5.67 27.33 5 26.5 5ZM27 21.5C27 21.78 26.78 22 26.5 22H1.5C1.22 22 1 21.78 1 21.5V6.5C1 6.22 1.22 6 1.5 6H26.5C26.78 6 27 6.22 27 6.5V21.5Z" fill="#1652F0"/>
<path d="M24 17H17V18H24V17Z" fill="#1652F0"/>
<path d="M24 14H17V15H24V14Z" fill="#1652F0"/>
<path d="M24 11H17V12H24V11Z" fill="#1652F0"/>
<path d="M8.5 9C5.47 9 3 11.47 3 14.5C3 17.53 5.47 20 8.5 20C11.53 20 14 17.53 14 14.5C14 11.47 11.53 9 8.5 9ZM12.95 14H10.99C10.93 12.64 10.65 11.28 10.17 10.33C11.67 10.93 12.76 12.33 12.95 14ZM8.5 19C7.93 19 7.12 17.45 7.02 15H9.98C9.88 17.45 9.07 19 8.5 19ZM7.02 14C7.12 11.55 7.93 10 8.5 10C9.07 10 9.88 11.55 9.98 14H7.02ZM6.84 10.33C6.35 11.28 6.07 12.64 6.01 14H4.05C4.24 12.33 5.33 10.93 6.84 10.33ZM4.05 15H6.01C6.07 16.36 6.35 17.72 6.83 18.67C5.33 18.07 4.24 16.67 4.05 15ZM10.16 18.67C10.65 17.71 10.93 16.36 10.98 15H12.94C12.76 16.67 11.67 18.07 10.16 18.67Z" fill="#1652F0"/>
</svg>
