<svg width="28" height="29" viewBox="0 0 28 29" fill="none" xmlns="http://www.w3.org/2000/svg">
<path d="M14 2.05762C7.38 2.05762 2 7.43762 2 14.0576C2 20.6776 7.38 26.0576 14 26.0576C20.62 26.0576 26 20.6776 26 14.0576C26 7.43762 20.62 2.05762 14 2.05762ZM14 25.0576C7.93 25.0576 3 20.1276 3 14.0576C3 7.98762 7.93 3.05762 14 3.05762C20.07 3.05762 25 7.98762 25 14.0576C25 20.1276 20.07 25.0576 14 25.0576Z" fill="#1652F0"/>
<path d="M11.57 9.41731C9.74003 11.2473 9.65003 14.1373 11.25 16.0973L8.03003 19.3173L8.74003 20.0273L11.96 16.8073C12.85 17.5373 13.94 17.9573 15.11 17.9573C16.45 17.9573 17.7 17.4373 18.65 16.4973C20.6 14.5473 20.6 11.3773 18.65 9.42731C16.69 7.46731 13.52 7.46731 11.57 9.41731ZM17.94 15.7773C16.43 17.2873 13.79 17.2873 12.28 15.7773C10.72 14.2173 10.72 11.6773 12.28 10.1173C13.06 9.33731 14.08 8.94731 15.11 8.94731C16.13 8.94731 17.16 9.33731 17.94 10.1173C18.7 10.8773 19.11 11.8773 19.11 12.9473C19.11 14.0173 18.69 15.0173 17.94 15.7773Z" fill="#1652F0"/>
<path d="M14.5701 13.4474L13.3501 12.2274L12.6401 12.9374L14.2101 14.5074C14.3101 14.6074 14.4401 14.6574 14.5601 14.6574C14.6801 14.6574 14.8201 14.6074 14.9101 14.5074L17.3501 12.0674L16.6501 11.3574L14.5701 13.4474Z" fill="#1652F0"/>
</svg>
