<svg width="28" height="28" viewBox="0 0 28 28" fill="none" xmlns="http://www.w3.org/2000/svg">
<path d="M25.5 2H2.5C2.22 2 2 2.22 2 2.5V23.5C2 23.78 2.22 24 2.5 24H25.5C25.78 24 26 23.78 26 23.5V2.5C26 2.22 25.78 2 25.5 2ZM25 23H3V3H25V23Z" fill="#1652F0"/>
<path d="M7.5 25H3.5V26H7.5V25Z" fill="#1652F0"/>
<path d="M24.5 25H20.5V26H24.5V25Z" fill="#1652F0"/>
<path d="M10.76 14.3L8.56 15.57L9.06 16.44L11.27 15.16C11.44 15.38 11.63 15.57 11.85 15.74L10.57 17.95L11.44 18.45L12.71 16.25C12.96 16.35 13.23 16.41 13.51 16.45V19H14.51V16.45C14.79 16.41 15.05 16.35 15.31 16.25L16.58 18.45L17.45 17.95L16.17 15.74C16.39 15.57 16.58 15.38 16.75 15.16L18.96 16.44L19.46 15.57L17.26 14.3C17.36 14.05 17.42 13.78 17.46 13.5H20V12.5H17.45C17.41 12.22 17.35 11.96 17.25 11.7L19.45 10.43L18.95 9.56L16.74 10.84C16.57 10.62 16.38 10.43 16.16 10.26L17.44 8.05L16.57 7.55L15.3 9.75C15.05 9.65 14.78 9.59 14.5 9.55V7H13.5V9.55C13.22 9.59 12.96 9.65 12.7 9.75L11.43 7.55L10.56 8.05L11.84 10.26C11.63 10.43 11.43 10.63 11.26 10.84L9.05 9.57L8.55 10.44L10.75 11.71C10.65 11.96 10.59 12.23 10.55 12.51H8V13.51H10.55C10.59 13.78 10.65 14.04 10.76 14.3ZM16.5 13C16.5 14.38 15.38 15.5 14 15.5C12.62 15.5 11.5 14.38 11.5 13C11.5 11.62 12.62 10.5 14 10.5C15.38 10.5 16.5 11.62 16.5 13Z" fill="#1652F0"/>
</svg>
