<svg width="28" height="28" viewBox="0 0 28 28" fill="none" xmlns="http://www.w3.org/2000/svg">
<path d="M18.4999 5C17.2999 5 16.1599 5.23 15.1099 5.64C15.4599 5.86 15.7899 6.09 16.1099 6.35C16.8699 6.13 17.6699 6 18.4999 6C23.1899 6 26.9999 9.81 26.9999 14.5C26.9999 19.19 23.1899 23 18.4999 23C17.6699 23 16.8699 22.87 16.1099 22.65C15.7899 22.91 15.4599 23.14 15.1099 23.36C16.1599 23.77 17.2999 24 18.4999 24C23.7399 24 27.9999 19.74 27.9999 14.5C27.9999 9.26 23.7399 5 18.4999 5Z" fill="#1652F0"/>
<path d="M19 14.5C19 9.26 14.74 5 9.5 5C4.26 5 0 9.26 0 14.5C0 19.74 4.26 24 9.5 24C14.74 24 19 19.74 19 14.5ZM9.5 23C4.81 23 1 19.19 1 14.5C1 9.81 4.81 6 9.5 6C14.19 6 18 9.81 18 14.5C18 19.19 14.19 23 9.5 23Z" fill="#1652F0"/>
<path d="M10 8H9V14.5C9 14.63 9.05 14.76 9.15 14.85L12.4 18.1L13.11 17.39L10 14.29V8Z" fill="#1652F0"/>
</svg>
