<svg width="18" height="18" viewBox="0 0 18 18" fill="none" xmlns="http://www.w3.org/2000/svg">
<path d="M16.85 16.15L13.28 12.58C14.39 11.31 15 9.7 15 8C15 6.13 14.27 4.37 12.95 3.05C11.63 1.73 9.87 1 8 1C6.13 1 4.37 1.73 3.05 3.05C1.73 4.37 1 6.13 1 8C1 9.87 1.73 11.63 3.05 12.95C4.42 14.31 6.21 15 8 15C9.64 15 11.27 14.42 12.58 13.29L16.15 16.86L16.85 16.15ZM3.76 12.24C2.62 11.11 2 9.6 2 8C2 6.4 2.62 4.89 3.76 3.76C4.89 2.62 6.4 2 8 2C9.6 2 11.11 2.62 12.24 3.76C13.38 4.89 14 6.4 14 8C14 9.6 13.38 11.11 12.24 12.24C9.9 14.58 6.1 14.58 3.76 12.24Z" fill="#1652F0"/>
</svg>
