<svg width="18" height="18" viewBox="0 0 18 18" fill="none" xmlns="http://www.w3.org/2000/svg">
<path d="M15.5 6H13V4C13 1.8 11.2 0 9 0C6.8 0 5 1.8 5 4V6H2.5C2.2 6 2 6.2 2 6.5V17.5C2 17.8 2.2 18 2.5 18H15.5C15.8 18 16 17.8 16 17.5V6.5C16 6.2 15.8 6 15.5 6ZM6 4C6 2.3 7.3 1 9 1C10.7 1 12 2.3 12 4V6H6V4ZM15 17H3V7H5.5H12.5H15V17Z" fill="#1652F0"/>
<path d="M9 9C7.9 9 7 9.9 7 11C7 11.9 7.6 12.7 8.5 12.9V15H9.5V12.9C10.4 12.7 11 11.9 11 11C11 9.9 10.1 9 9 9ZM9 12C8.4 12 8 11.6 8 11C8 10.4 8.4 10 9 10C9.6 10 10 10.4 10 11C10 11.6 9.6 12 9 12Z" fill="#1652F0"/>
</svg>
