<svg width="28" height="28" viewBox="0 0 28 28" fill="none" xmlns="http://www.w3.org/2000/svg">
<path d="M24.8301 3.52C24.8301 3.49 24.8301 3.47 24.8301 3.44C24.8301 3.41 24.8201 3.39 24.8201 3.36C24.8101 3.33 24.8001 3.31 24.7901 3.28C24.7801 3.26 24.7801 3.24 24.7701 3.23C24.7701 3.22 24.7601 3.22 24.7501 3.21C24.7301 3.19 24.7101 3.17 24.7001 3.15C24.6801 3.13 24.6601 3.11 24.6301 3.09C24.6201 3.09 24.6201 3.08 24.6101 3.07C24.5901 3.06 24.5801 3.06 24.5601 3.05C24.5301 3.04 24.5101 3.02 24.4801 3.02C24.4401 3.01 24.4101 3.01 24.3901 3C24.3601 3 24.3301 3 24.3101 3C24.2801 3 24.2501 3.01 24.2201 3.01C24.2001 3.01 24.1801 3.01 24.1601 3.02L3.33009 10.43C3.15009 10.5 3.02009 10.66 3.00009 10.86C2.98009 11.05 3.08009 11.24 3.25009 11.34L11.7001 16.13L16.4901 24.57C16.5801 24.73 16.7501 24.82 16.9201 24.82C16.9301 24.82 16.9501 24.82 16.9601 24.82C17.1501 24.8 17.3201 24.67 17.3901 24.49L24.8001 3.66C24.8101 3.64 24.8001 3.63 24.8101 3.61C24.8201 3.58 24.8301 3.55 24.8301 3.52ZM22.4101 4.71L16.9401 10.18L11.9801 15.14L4.70009 11.01L22.4101 4.71ZM16.8201 23.13L12.6901 15.85L17.6501 10.89L23.1201 5.42L16.8201 23.13Z" fill="#1652F0"/>
</svg>
