<svg width="18" height="18" viewBox="0 0 18 18" fill="none" xmlns="http://www.w3.org/2000/svg">
<path fill-rule="evenodd" clip-rule="evenodd" d="M9 2C5.13401 2 2 5.13401 2 9C2 12.866 5.13401 16 9 16C12.866 16 16 12.866 16 9C16 5.13401 12.866 2 9 2ZM1 9C1 4.58172 4.58172 1 9 1C13.4183 1 17 4.58172 17 9C17 13.4183 13.4183 17 9 17C4.58172 17 1 13.4183 1 9Z" fill="#1652F0"/>
<path fill-rule="evenodd" clip-rule="evenodd" d="M5.5 8.5H12.5V9.5H5.5V8.5Z" fill="#1652F0"/>
<path fill-rule="evenodd" clip-rule="evenodd" d="M11.9228 9.00004L9.27637 6.35359L9.98347 5.64648L12.9835 8.64648C13.1787 8.84175 13.1787 9.15833 12.9835 9.35359L9.98347 12.3536L9.27637 11.6465L11.9228 9.00004Z" fill="#1652F0"/>
</svg>
