<svg width="28" height="28" viewBox="0 0 28 28" fill="none" xmlns="http://www.w3.org/2000/svg">
<path d="M14 2C7.38 2 2 7.38 2 14C2 20.62 7.38 26 14 26C20.62 26 26 20.62 26 14C26 7.38 20.62 2 14 2ZM14 25C7.93 25 3 20.07 3 14C3 7.93 7.93 3 14 3C20.07 3 25 7.93 25 14C25 20.07 20.07 25 14 25Z" fill="#1652F0"/>
<path d="M15.85 10.6504L15.14 11.3604L17.29 13.5104H9V14.5104H17.29L15.14 16.6604L15.85 17.3704L18.85 14.3704C19.05 14.1704 19.05 13.8604 18.85 13.6604L15.85 10.6504Z" fill="#1652F0"/>
</svg>
