<svg width="18" height="18" viewBox="0 0 18 18" fill="none" xmlns="http://www.w3.org/2000/svg">
<path d="M13.9 4C13.7 2.9 12.7 2 11.5 2C10.3 2 9.3 2.9 9.1 4H1V5H9.1C9.3 6.1 10.3 7 11.5 7C12.7 7 13.7 6.1 13.9 5H17V4H13.9ZM11.5 6C10.7 6 10 5.3 10 4.5C10 3.7 10.7 3 11.5 3C12.3 3 13 3.7 13 4.5C13 5.3 12.3 6 11.5 6Z" fill="#1652F0"/>
<path d="M6.5 11C5.3 11 4.3 11.9 4.1 13H1V14H4.1C4.3 15.1 5.3 16 6.5 16C7.7 16 8.7 15.1 8.9 14H17V13H8.9C8.7 11.9 7.7 11 6.5 11ZM6.5 15C5.7 15 5 14.3 5 13.5C5 12.7 5.7 12 6.5 12C7.3 12 8 12.7 8 13.5C8 14.3 7.3 15 6.5 15Z" fill="#1652F0"/>
</svg>
