<svg width="28" height="28" viewBox="0 0 28 28" fill="none" xmlns="http://www.w3.org/2000/svg">
<g clip-path="url(#clip0)">
<path d="M25.5 11.5H23.16C22.95 10.73 22.64 9.99 22.24 9.29L23.9 7.63C24.1 7.43 24.1 7.12 23.9 6.92L21.07 4.1C20.87 3.9 20.56 3.9 20.36 4.1L18.7 5.76C18 5.36 17.26 5.05 16.49 4.84V2.5C16.5 2.22 16.28 2 16 2H12C11.72 2 11.5 2.22 11.5 2.5V4.84C10.73 5.05 9.99 5.36 9.29 5.76L7.64 4.1C7.44 3.9 7.13 3.9 6.93 4.1L4.1 6.93C3.9 7.13 3.9 7.44 4.1 7.64L5.76 9.3C5.36 10 5.05 10.74 4.84 11.5H2.5C2.22 11.5 2 11.72 2 12V16C2 16.28 2.22 16.5 2.5 16.5H4.84C5.05 17.27 5.36 18.01 5.76 18.71L4.1 20.36C3.9 20.56 3.9 20.87 4.1 21.07L6.93 23.9C7.12 24.09 7.45 24.09 7.64 23.9L9.3 22.24C10 22.64 10.74 22.95 11.51 23.16V25.5C11.51 25.78 11.73 26 12.01 26H16.01C16.29 26 16.51 25.78 16.51 25.5V23.16C17.28 22.95 18.02 22.64 18.72 22.24L20.38 23.9C20.58 24.1 20.89 24.1 21.09 23.9L23.92 21.07C24.12 20.87 24.12 20.56 23.92 20.36L22.26 18.7C22.66 18 22.97 17.26 23.18 16.49H25.52C25.8 16.49 26.02 16.27 26.02 15.99V11.99C26 11.72 25.78 11.5 25.5 11.5ZM25 15.5H22.77C22.54 15.5 22.33 15.66 22.28 15.89C22.07 16.82 21.7 17.71 21.19 18.52C21.07 18.72 21.09 18.98 21.26 19.14L22.84 20.72L20.72 22.84L19.14 21.26C18.97 21.09 18.72 21.07 18.52 21.19C17.71 21.7 16.82 22.07 15.89 22.28C15.66 22.33 15.5 22.53 15.5 22.77V25H12.5V22.77C12.5 22.54 12.34 22.33 12.11 22.28C11.18 22.07 10.3 21.7 9.48 21.19C9.28 21.07 9.03 21.09 8.86 21.26L7.28 22.84L5.16 20.72L6.74 19.14C6.91 18.97 6.93 18.72 6.81 18.52C6.3 17.71 5.93 16.82 5.72 15.89C5.67 15.66 5.47 15.5 5.23 15.5H3V12.5H5.23C5.46 12.5 5.67 12.34 5.72 12.11C5.93 11.2 6.3 10.31 6.81 9.48C6.93 9.28 6.9 9.03 6.74 8.86L5.16 7.28L7.28 5.16L8.86 6.74C9.03 6.91 9.28 6.93 9.48 6.81C10.29 6.3 11.18 5.93 12.11 5.72C12.34 5.67 12.5 5.47 12.5 5.23V3H15.5V5.23C15.5 5.46 15.66 5.67 15.89 5.72C16.82 5.93 17.71 6.3 18.52 6.81C18.72 6.93 18.98 6.91 19.14 6.74L20.72 5.16L22.84 7.28L21.26 8.86C21.09 9.03 21.07 9.28 21.19 9.48C21.7 10.29 22.07 11.18 22.28 12.11C22.33 12.34 22.53 12.5 22.77 12.5H25V15.5Z" fill="#1652F0"/>
<path d="M14 10C11.79 10 10 11.79 10 14C10 16.21 11.79 18 14 18C16.21 18 18 16.21 18 14C18 11.79 16.21 10 14 10ZM14 17C12.35 17 11 15.65 11 14C11 12.35 12.35 11 14 11C15.65 11 17 12.35 17 14C17 15.65 15.65 17 14 17Z" fill="#1652F0"/>
</g>
<defs>
<clipPath id="clip0">
<rect x="2" y="2" width="24" height="24" fill="white"/>
</clipPath>
</defs>
</svg>
