<svg width="28" height="28" viewBox="0 0 28 28" fill="none" xmlns="http://www.w3.org/2000/svg">
<path d="M24.64 5.01957L14.14 2.01957C14.05 1.98957 13.95 1.98957 13.86 2.01957L3.36 5.01957C3.15 5.07957 3 5.27957 3 5.49957V13.4996C3 20.7096 13.31 26.6796 13.75 26.9296C13.83 26.9796 13.91 26.9996 14 26.9996C14.09 26.9996 14.17 26.9796 14.25 26.9296C14.69 26.6796 25 20.7096 25 13.4996V5.49957C25 5.27957 24.85 5.07957 24.64 5.01957ZM24 13.4996C24 19.5396 15.57 24.9596 14 25.9196C12.43 24.9596 4 19.5496 4 13.4996V5.87957L14 3.01957L24 5.87957V13.4996Z" fill="#1652F0"/>
<path d="M11.32 13.0595L10.61 13.7695L12.73 15.8895C12.82 15.9795 12.95 16.0395 13.08 16.0395C13.21 16.0395 13.34 15.9895 13.43 15.8895L18.38 10.9395L17.67 10.2295L13.07 14.8295L11.32 13.0595Z" fill="#1652F0"/>
</svg>
