<svg width="18" height="18" viewBox="0 0 18 18" fill="none" xmlns="http://www.w3.org/2000/svg">
<g clip-path="url(#clip0)">
<path d="M17.9401 8.77C16.1001 5.21 12.6801 3 9.00007 3C5.32007 3 1.90007 5.21 0.0600684 8.77C-0.00993164 8.91 -0.00993164 9.09 0.0600684 9.23C1.90007 12.79 5.32007 15 9.00007 15C12.6801 15 16.1001 12.79 17.9401 9.23C18.0201 9.09 18.0201 8.91 17.9401 8.77ZM9.00007 14C5.78007 14 2.76007 12.09 1.07007 9C2.76007 5.91 5.78007 4 9.00007 4C12.2201 4 15.2401 5.91 16.9301 9C15.2401 12.09 12.2201 14 9.00007 14Z" fill="#1652F0"/>
<path d="M9 6C7.35 6 6 7.35 6 9C6 10.65 7.35 12 9 12C10.65 12 12 10.65 12 9C12 7.35 10.65 6 9 6ZM9 11C7.9 11 7 10.1 7 9C7 7.9 7.9 7 9 7C10.1 7 11 7.9 11 9C11 10.1 10.1 11 9 11Z" fill="#1652F0"/>
</g>
<defs>
<clipPath id="clip0">
<rect width="18" height="18" fill="white"/>
</clipPath>
</defs>
</svg>
