<svg width="18" height="18" viewBox="0 0 18 18" fill="none" xmlns="http://www.w3.org/2000/svg">
<path d="M15.5 2H2.5C1.12 2 0 3.12 0 4.5V13.5C0 14.88 1.12 16 2.5 16H15.5C16.88 16 18 14.88 18 13.5V4.5C18 3.12 16.88 2 15.5 2ZM17 13.5C17 14.33 16.33 15 15.5 15H2.5C1.67 15 1 14.33 1 13.5V4.5C1 3.67 1.67 3 2.5 3H15.5C16.33 3 17 3.67 17 4.5V13.5Z" fill="#1652F0"/>
<path d="M9.99989 10.2904L7.34989 7.65039C7.14989 7.45039 6.83989 7.45039 6.63989 7.65039L2.63989 11.6504L3.34989 12.3604L6.99989 8.71039L9.64989 11.3604C9.84989 11.5604 10.1599 11.5604 10.3599 11.3604L15.3599 6.36039L14.6499 5.65039L9.99989 10.2904Z" fill="#1652F0"/>
</svg>
