<svg width="28" height="28" viewBox="0 0 28 28" fill="none" xmlns="http://www.w3.org/2000/svg">
<path d="M26 14C26 7.38 20.62 2 14 2C7.38 2 2 7.38 2 14C2 18.92 4.98 23.15 9.22 25H2V26H26V25H18.78C23.02 23.15 26 18.92 26 14ZM3 14C3 7.93 7.93 3 14 3C20.07 3 25 7.93 25 14C25 20.07 20.07 25 14 25C7.93 25 3 20.07 3 14Z" fill="#1652F0"/>
<path d="M14.5001 18.15V8.5H13.5001V18.15L11.5301 16.18L10.8201 16.89L13.6501 19.72C13.7401 19.81 13.8701 19.87 14.0001 19.87C14.1301 19.87 14.2601 19.82 14.3501 19.72L17.1801 16.89L16.4701 16.18L14.5001 18.15Z" fill="#1652F0"/>
</svg>
