<svg width="28" height="28" viewBox="0 0 28 28" fill="none" xmlns="http://www.w3.org/2000/svg">
<path d="M14 2.05664C7.4 2.05664 2 7.45664 2 14.0566C2 20.6566 7.4 26.0566 14 26.0566C20.6 26.0566 26 20.6566 26 14.0566C26 7.45664 20.6 2.05664 14 2.05664ZM14 25.0566C7.9 25.0566 3 20.1566 3 14.0566C3 7.95664 7.9 3.05664 14 3.05664C20.1 3.05664 25 7.95664 25 14.0566C25 20.1566 20.1 25.0566 14 25.0566Z" fill="#1652F0"/>
<path d="M17 15.0566C15.9 15.0566 15 15.9566 15 17.0566C15 18.1566 15.9 19.0566 17 19.0566C18.1 19.0566 19 18.1566 19 17.0566C19 15.9566 18.1 15.0566 17 15.0566ZM17 18.0566C16.4 18.0566 16 17.6566 16 17.0566C16 16.4566 16.4 16.0566 17 16.0566C17.6 16.0566 18 16.4566 18 17.0566C18 17.6566 17.6 18.0566 17 18.0566Z" fill="#1652F0"/>
<path d="M13 11.0566C13 9.95664 12.1 9.05664 11 9.05664C9.9 9.05664 9 9.95664 9 11.0566C9 12.1566 9.9 13.0566 11 13.0566C12.1 13.0566 13 12.1566 13 11.0566ZM10 11.0566C10 10.4566 10.4 10.0566 11 10.0566C11.6 10.0566 12 10.4566 12 11.0566C12 11.6566 11.6 12.0566 11 12.0566C10.4 12.0566 10 11.6566 10 11.0566Z" fill="#1652F0"/>
<path d="M16.6068 8.73971L10.5872 18.7725L11.4447 19.287L17.4643 9.25421L16.6068 8.73971Z" fill="#1652F0"/>
</svg>
