<svg width="28" height="28" viewBox="0 0 28 28" fill="none" xmlns="http://www.w3.org/2000/svg">
<path d="M12.5699 12.5001L9.71993 12.0801L8.44993 9.50012C8.27993 9.16012 7.71993 9.16012 7.54993 9.50012L6.27993 12.0801L3.42993 12.5001C3.23993 12.5301 3.08993 12.6601 3.02993 12.8401C2.96993 13.0201 3.00993 13.2101 3.14993 13.3501L5.20993 15.3601L4.72993 18.2001C4.69993 18.3901 4.76993 18.5801 4.92993 18.6901C5.07993 18.8001 5.28993 18.8201 5.45993 18.7301L7.99993 17.3801L10.5499 18.7201C10.6199 18.7601 10.6999 18.7801 10.7799 18.7801C10.8799 18.7801 10.9899 18.7501 11.0699 18.6801C11.2199 18.5701 11.2999 18.3801 11.2699 18.1901L10.7799 15.3501L12.8399 13.3401C12.9799 13.2101 13.0299 13.0101 12.9699 12.8301C12.9199 12.6501 12.7599 12.5201 12.5699 12.5001ZM9.89993 14.8301C9.77993 14.9401 9.72993 15.1101 9.75993 15.2701L10.1199 17.3701L8.23993 16.3801C8.15993 16.3401 8.07993 16.3201 7.99993 16.3201C7.91993 16.3201 7.83993 16.3401 7.76993 16.3801L5.88993 17.3701L6.24993 15.2701C6.27993 15.1101 6.21993 14.9401 6.10993 14.8301L4.56993 13.3401L6.67993 13.0301C6.83993 13.0101 6.97993 12.9001 7.05993 12.7601L7.99993 10.8501L8.93993 12.7601C9.00993 12.9101 9.14993 13.0101 9.31993 13.0301L11.4299 13.3401L9.89993 14.8301Z" fill="#1652F0"/>
<path d="M26.5 5H1.5C0.67 5 0 5.67 0 6.5V21.5C0 22.33 0.67 23 1.5 23H26.5C27.33 23 28 22.33 28 21.5V6.5C28 5.67 27.33 5 26.5 5ZM27 21.5C27 21.78 26.78 22 26.5 22H1.5C1.22 22 1 21.78 1 21.5V6.5C1 6.22 1.22 6 1.5 6H26.5C26.78 6 27 6.22 27 6.5V21.5Z" fill="#1652F0"/>
<path d="M24 17H16V18H24V17Z" fill="#1652F0"/>
<path d="M24 14H16V15H24V14Z" fill="#1652F0"/>
<path d="M24 11H16V12H24V11Z" fill="#1652F0"/>
</svg>
