<svg width="28" height="28" viewBox="0 0 28 28" fill="none" xmlns="http://www.w3.org/2000/svg">
<path d="M14 2C20.62 2 26 7.38 26 14C26 20.62 20.62 26 14 26C7.38 26 2 20.62 2 14C2 7.38 7.38 2 14 2ZM14 25C20.07 25 25 20.07 25 14C25 7.93 20.07 3 14 3C7.93 3 3 7.93 3 14C3 20.07 7.93 25 14 25Z" fill="#1652F0"/>
<path d="M9.00011 12.0004H18.7901L16.6401 9.85039L17.3501 9.15039L20.3501 12.1504C20.4901 12.2904 20.5401 12.5104 20.4601 12.6904C20.3801 12.8804 20.2001 13.0004 20.0001 13.0004H9.00011V12.0004Z" fill="#1652F0"/>
<path d="M8 15H19V16H9.21L11.36 18.15L10.65 18.86L7.65 15.86C7.51 15.72 7.46 15.5 7.54 15.32C7.62 15.12 7.8 15 8 15Z" fill="#1652F0"/>
</svg>
