<svg width="18" height="18" viewBox="0 0 18 18" fill="none" xmlns="http://www.w3.org/2000/svg">
<path fill-rule="evenodd" clip-rule="evenodd" d="M2 6.5C2 6.22386 2.22386 6 2.5 6H15.5C15.7761 6 16 6.22386 16 6.5V17.5C16 17.7761 15.7761 18 15.5 18H2.5C2.22386 18 2 17.7761 2 17.5V6.5ZM3 7V17H15V7H3Z" fill="#1652F0"/>
<path fill-rule="evenodd" clip-rule="evenodd" d="M9 1C7.34614 1 6 2.34614 6 4H5C5 1.79386 6.79386 0 9 0C11.2061 0 13 1.79386 13 4V6.5H12V4C12 2.34614 10.6539 1 9 1Z" fill="#1652F0"/>
<path fill-rule="evenodd" clip-rule="evenodd" d="M9 10C8.44772 10 8 10.4477 8 11C8 11.5523 8.44772 12 9 12C9.55228 12 10 11.5523 10 11C10 10.4477 9.55228 10 9 10ZM7 11C7 9.89543 7.89543 9 9 9C10.1046 9 11 9.89543 11 11C11 12.1046 10.1046 13 9 13C7.89543 13 7 12.1046 7 11Z" fill="#1652F0"/>
<path fill-rule="evenodd" clip-rule="evenodd" d="M8.5 15V12.5H9.5V15H8.5Z" fill="#1652F0"/>
</svg>
