<svg width="28" height="29" viewBox="0 0 28 29" fill="none" xmlns="http://www.w3.org/2000/svg">
<path d="M19 9.05762H9C8.72 9.05762 8.5 9.27762 8.5 9.55762V18.5576C8.5 18.6876 8.55 18.8176 8.65 18.9076C8.74 19.0076 8.87 19.0576 9 19.0576L19 19.0176C19.82 19.0176 20.49 18.3376 20.49 17.5176V15.5576V12.5576V10.5576C20.5 9.72762 19.83 9.05762 19 9.05762ZM19 18.0176L9.5 18.0576V10.0576H19C19.28 10.0576 19.5 10.2776 19.5 10.5576V12.0576H16.5C16.22 12.0576 16 12.2776 16 12.5576V15.5576C16 15.8376 16.22 16.0576 16.5 16.0576H19.5V17.5176C19.5 17.7976 19.28 18.0176 19 18.0176ZM19.5 15.0576H17V13.0576H19.5V15.0576Z" fill="#1652F0"/>
<path d="M14 2.05762C7.38 2.05762 2 7.43762 2 14.0576C2 20.6776 7.38 26.0576 14 26.0576C20.62 26.0576 26 20.6776 26 14.0576C26 7.43762 20.62 2.05762 14 2.05762ZM14 25.0576C7.93 25.0576 3 20.1276 3 14.0576C3 7.98762 7.93 3.05762 14 3.05762C20.07 3.05762 25 7.98762 25 14.0576C25 20.1276 20.07 25.0576 14 25.0576Z" fill="#1652F0"/>
</svg>
