<svg width="28" height="28" viewBox="0 0 28 28" fill="none" xmlns="http://www.w3.org/2000/svg">
<path d="M25.5 7H22V3.5C22 3.22 21.78 3 21.5 3H4.5C3.12 3 2 4.12 2 5.5V22.5C2 23.88 3.12 25 4.5 25H25.5C25.78 25 26 24.78 26 24.5V18.5V13.5V7.5C26 7.22 25.78 7 25.5 7ZM4.5 4H21V7H4.5C3.67 7 3 6.33 3 5.5C3 4.67 3.67 4 4.5 4ZM4.5 24C3.67 24 3 23.33 3 22.5V7.5C3.02 7.51 3.04 7.53 3.06 7.54C3.1 7.57 3.15 7.59 3.19 7.62C3.28 7.67 3.36 7.72 3.45 7.76C3.5 7.78 3.55 7.81 3.6 7.82C3.7 7.86 3.8 7.89 3.9 7.91C3.95 7.92 3.99 7.94 4.04 7.94C4.19 7.98 4.34 8 4.5 8H21.5H25V13H19.5C19.22 13 19 13.22 19 13.5V18.5C19 18.78 19.22 19 19.5 19H25V24H4.5ZM25 18H20V14H25V18Z" fill="#1652F0"/>
</svg>
