<svg width="28" height="28" viewBox="0 0 28 28" fill="none" xmlns="http://www.w3.org/2000/svg">
<path d="M25.3399 26.15H2.65993C2.07993 26.15 1.53993 25.84 1.23993 25.33C0.919929 24.79 0.909929 24.14 1.20993 23.59L12.6899 2.78C12.9599 2.29 13.4499 2 13.9999 2C14.5499 2 15.0499 2.29 15.3099 2.78L26.7799 23.59C27.0799 24.14 27.0699 24.79 26.7499 25.32C26.4499 25.84 25.9199 26.15 25.3399 26.15ZM13.9999 3C13.9099 3 13.6899 3.03 13.5599 3.26L2.09993 24.07C1.96993 24.3 1.97993 24.58 2.10993 24.81C2.16993 24.91 2.33993 25.14 2.66993 25.14H25.3499C25.6799 25.14 25.8499 24.91 25.9099 24.81C26.0499 24.58 26.0499 24.3 25.9199 24.07L14.4399 3.26C14.3099 3.03 14.0899 3 13.9999 3Z" fill="#1652F0"/>
<path d="M14.5 20.6504H13.5V22.6504H14.5V20.6504Z" fill="#1652F0"/>
<path d="M14.5 10.6504H13.5V19.1504H14.5V10.6504Z" fill="#1652F0"/>
</svg>
