<svg width="28" height="28" viewBox="0 0 28 28" fill="none" xmlns="http://www.w3.org/2000/svg">
<path d="M19.5 8.75C19.9142 8.75 20.25 8.41421 20.25 8C20.25 7.58579 19.9142 7.25 19.5 7.25C19.0858 7.25 18.75 7.58579 18.75 8C18.75 8.41421 19.0858 8.75 19.5 8.75Z" fill="#1652F0"/>
<path d="M21.2 21.8301C20.93 22.0201 20.65 22.2101 20.36 22.3801L22.08 25.0001H6.91998L8.63998 22.3801C8.34998 22.2101 8.06998 22.0301 7.79998 21.8301L5.57998 25.2301C5.47998 25.3801 5.46998 25.5801 5.55998 25.7401C5.64998 25.9001 5.81998 26.0001 5.99998 26.0001H23C23.18 26.0001 23.35 25.9001 23.44 25.7401C23.53 25.5801 23.52 25.3801 23.42 25.2301L21.2 21.8301Z" fill="#1652F0"/>
<path d="M14.5 23C20.29 23 25 18.29 25 12.5C25 6.71 20.29 2 14.5 2C8.71 2 4 6.71 4 12.5C4 18.29 8.71 23 14.5 23ZM14.5 3C19.74 3 24 7.26 24 12.5C24 17.74 19.74 22 14.5 22C9.26 22 5 17.74 5 12.5C5 7.26 9.26 3 14.5 3Z" fill="#1652F0"/>
<path d="M14.5 17C16.98 17 19 14.98 19 12.5C19 10.02 16.98 8 14.5 8C12.02 8 10 10.02 10 12.5C10 14.98 12.02 17 14.5 17ZM14.5 9C16.43 9 18 10.57 18 12.5C18 14.43 16.43 16 14.5 16C12.57 16 11 14.43 11 12.5C11 10.57 12.57 9 14.5 9Z" fill="#1652F0"/>
<path d="M14.5 11V10C13.12 10 12 11.12 12 12.5H13C13 11.67 13.67 11 14.5 11Z" fill="#1652F0"/>
</svg>
