<svg width="18" height="18" viewBox="0 0 18 18" fill="none" xmlns="http://www.w3.org/2000/svg">
<path d="M17.5 2H11.5C11.3 2 11.12 2.12 11.04 2.31C10.96 2.5 11 2.71 11.15 2.85L12.8 4.5L4.15 13.15C3.95 13.35 3.95 13.66 4.15 13.86L5.29 15H1V10.71L2.15 11.86C2.35 12.06 2.66 12.06 2.86 11.86L8.86 5.86L8.15 5.15L2.5 10.79L0.85 9.15C0.71 9 0.5 8.96 0.31 9.04C0.12 9.12 0 9.3 0 9.5V15.5C0 15.78 0.22 16 0.5 16H6.5C6.7 16 6.88 15.88 6.96 15.69C7.04 15.5 6.99 15.29 6.85 15.15L5.21 13.5L13.86 4.85C14.06 4.65 14.06 4.34 13.86 4.14L12.71 3H17V7.29L15.85 6.14C15.65 5.94 15.34 5.94 15.14 6.14L9.14 12.14L9.85 12.85L15.5 7.2L17.15 8.85C17.29 8.99 17.51 9.04 17.69 8.96C17.88 8.88 18 8.7 18 8.5V2.5C18 2.22 17.78 2 17.5 2Z" fill="#1652F0"/>
</svg>
